<svg width="346" height="261" viewBox="0 0 346 261" fill="none" xmlns="http://www.w3.org/2000/svg">
<path d="M327.465 163.717C327.258 156.131 327.848 143.194 321.197 137.867C315.354 133.191 310.811 139.538 309.171 144.658C305.199 157.078 307.063 170.774 307.076 183.596C307.076 183.79 307.076 183.985 307.076 184.203C306.766 193.642 305.63 203.852 306.663 213.272C306.663 213.272 305.648 203.833 298.238 207.878C290.829 211.923 301.943 233.151 301.943 233.151C301.943 233.151 293.185 226.749 289.14 232.143C285.095 237.536 294.193 243.598 294.193 243.598C294.193 243.598 285.769 241.241 285.769 243.598C285.769 245.954 288.466 247.977 296.216 248.991H337.991C337.991 248.991 344.732 245.28 343.384 241.241C342.036 237.202 334.954 239.528 334.954 239.528C334.954 239.528 345.741 226.385 345.066 220.657C344.392 214.93 330.575 221.672 330.575 221.672C330.575 221.672 341.355 194.377 339.333 182.248C337.742 172.694 330.326 179.211 326.287 182.904C327.237 176.555 327.632 170.135 327.465 163.717Z" fill="#006EE9" stroke="white" stroke-linecap="round" stroke-linejoin="round"/>
<path opacity="0.5" d="M327.465 163.717C327.258 156.131 327.848 143.194 321.197 137.867C315.354 133.191 310.811 139.538 309.171 144.658C305.199 157.078 307.063 170.774 307.076 183.596C307.076 183.79 307.076 183.985 307.076 184.203C306.766 193.642 305.63 203.852 306.663 213.272C306.663 213.272 305.648 203.833 298.238 207.878C290.829 211.923 301.943 233.151 301.943 233.151C301.943 233.151 293.185 226.749 289.14 232.143C285.095 237.536 294.193 243.598 294.193 243.598C294.193 243.598 285.769 241.241 285.769 243.598C285.769 245.954 288.466 247.977 296.216 248.991H337.991C337.991 248.991 344.732 245.28 343.384 241.241C342.036 237.202 334.954 239.528 334.954 239.528C334.954 239.528 345.741 226.385 345.066 220.657C344.392 214.93 330.575 221.672 330.575 221.672C330.575 221.672 341.355 194.377 339.333 182.248C337.742 172.694 330.326 179.211 326.287 182.904C327.237 176.555 327.632 170.135 327.465 163.717Z" fill="white"/>
<path d="M314.06 248.627L317.097 155.961" stroke="white" stroke-linecap="round" stroke-linejoin="round"/>
<path d="M315.749 209.877L331.583 195.051" stroke="white" stroke-linecap="round" stroke-linejoin="round"/>
<path d="M323.159 203.135L326.53 193.702" stroke="white" stroke-linecap="round" stroke-linejoin="round"/>
<path d="M302.605 221.332L314.735 234.475" stroke="white" stroke-linecap="round" stroke-linejoin="round"/>
<path d="M334.954 228.747L314.734 239.194" stroke="white" stroke-linecap="round" stroke-linejoin="round"/>
<path d="M324.173 234.809L331.583 234.475" stroke="white" stroke-linecap="round" stroke-linejoin="round"/>
<path d="M314.06 248.627L317.097 155.961" stroke="#006EE9" stroke-linecap="round" stroke-linejoin="round"/>
<path d="M315.749 209.877L331.583 195.051" stroke="#006EE9" stroke-linecap="round" stroke-linejoin="round"/>
<path d="M323.159 203.135L326.53 193.702" stroke="#006EE9" stroke-linecap="round" stroke-linejoin="round"/>
<path d="M302.605 221.332L314.735 234.475" stroke="#006EE9" stroke-linecap="round" stroke-linejoin="round"/>
<path d="M334.954 228.747L314.734 239.194" stroke="#006EE9" stroke-linecap="round" stroke-linejoin="round"/>
<path d="M324.173 234.809L331.583 234.475" stroke="#006EE9" stroke-linecap="round" stroke-linejoin="round"/>
<g opacity="0.8">
<path opacity="0.8" d="M314.06 248.627L317.097 155.961" stroke="white" stroke-linecap="round" stroke-linejoin="round"/>
<path opacity="0.8" d="M315.749 209.877L331.583 195.051" stroke="white" stroke-linecap="round" stroke-linejoin="round"/>
<path opacity="0.8" d="M323.159 203.135L326.53 193.703" stroke="white" stroke-linecap="round" stroke-linejoin="round"/>
<path opacity="0.8" d="M302.605 221.332L314.735 234.475" stroke="white" stroke-linecap="round" stroke-linejoin="round"/>
<path opacity="0.8" d="M334.954 228.747L314.734 239.194" stroke="white" stroke-linecap="round" stroke-linejoin="round"/>
<path opacity="0.8" d="M324.173 234.809L331.583 234.475" stroke="white" stroke-linecap="round" stroke-linejoin="round"/>
</g>
<path d="M256.178 229.902C256.178 239.322 263.643 246.963 263.643 246.963C263.643 246.963 271.108 239.322 271.108 229.902C271.108 220.481 263.643 212.841 263.643 212.841C263.643 212.841 256.178 220.475 256.178 229.902Z" fill="#006EE9"/>
<path d="M251.004 244.436C254.648 248.524 260.807 248.967 260.807 248.967C260.807 248.967 261.104 242.778 257.484 238.69C253.864 234.603 247.681 234.159 247.681 234.159C247.681 234.159 247.378 240.348 251.004 244.436Z" fill="#006EE9"/>
<path d="M270.026 238.55C266.218 242.468 266.242 248.663 266.242 248.663C266.242 248.663 272.431 248.499 276.234 244.575C280.036 240.652 280.024 234.463 280.024 234.463C280.024 234.463 273.828 234.627 270.026 238.55Z" fill="#006EE9"/>
<g opacity="0.5">
<path opacity="0.5" d="M256.178 229.902C256.178 239.322 263.643 246.963 263.643 246.963C263.643 246.963 271.108 239.322 271.108 229.902C271.108 220.481 263.643 212.841 263.643 212.841C263.643 212.841 256.178 220.475 256.178 229.902Z" fill="white"/>
<path opacity="0.5" d="M263.643 246.963V212.841" stroke="white" stroke-linecap="round" stroke-linejoin="round"/>
<path opacity="0.5" d="M263.643 224.97L259.464 221.32" stroke="white" stroke-linecap="round" stroke-linejoin="round"/>
<path opacity="0.5" d="M263.71 230.606L268.885 223.111" stroke="white" stroke-linecap="round" stroke-linejoin="round"/>
<path opacity="0.5" d="M263.643 233.856L257.472 228.353" stroke="white" stroke-linecap="round" stroke-linejoin="round"/>
<path opacity="0.5" d="M263.71 238.235L269.814 232.799" stroke="white" stroke-linecap="round" stroke-linejoin="round"/>
<path opacity="0.5" d="M263.71 242.018L258.93 238.235" stroke="white" stroke-linecap="round" stroke-linejoin="round"/>
<path opacity="0.5" d="M251.004 244.436C254.648 248.523 260.807 248.967 260.807 248.967C260.807 248.967 261.104 242.778 257.484 238.69C253.864 234.602 247.681 234.159 247.681 234.159C247.681 234.159 247.378 240.348 251.004 244.436Z" fill="white"/>
<path opacity="0.5" d="M260.807 248.967L247.681 234.159" stroke="white" stroke-linecap="round" stroke-linejoin="round"/>
<path opacity="0.5" d="M252.346 239.425L249.127 239.449" stroke="white" stroke-linecap="round" stroke-linejoin="round"/>
<path opacity="0.5" d="M254.545 241.842L253.907 236.601" stroke="white" stroke-linecap="round" stroke-linejoin="round"/>
<path opacity="0.5" d="M255.765 243.282L250.973 243.264" stroke="white" stroke-linecap="round" stroke-linejoin="round"/>
<path opacity="0.5" d="M257.478 245.152L258.031 240.445" stroke="white" stroke-linecap="round" stroke-linejoin="round"/>
<path opacity="0.5" d="M258.936 246.792L255.407 246.993" stroke="white" stroke-linecap="round" stroke-linejoin="round"/>
<path opacity="0.5" d="M270.026 238.551C266.218 242.468 266.242 248.663 266.242 248.663C266.242 248.663 272.431 248.499 276.234 244.576C280.036 240.652 280.024 234.463 280.024 234.463C280.024 234.463 273.828 234.627 270.026 238.551Z" fill="white"/>
<path opacity="0.5" d="M266.242 248.663L280.024 234.463" stroke="white" stroke-linecap="round" stroke-linejoin="round"/>
<path opacity="0.5" d="M275.122 239.51L274.861 236.303" stroke="white" stroke-linecap="round" stroke-linejoin="round"/>
<path opacity="0.5" d="M272.875 241.885L278.056 240.853" stroke="white" stroke-linecap="round" stroke-linejoin="round"/>
<path opacity="0.5" d="M271.533 243.209L271.193 238.429" stroke="white" stroke-linecap="round" stroke-linejoin="round"/>
<path opacity="0.5" d="M269.79 245.055L274.527 245.262" stroke="white" stroke-linecap="round" stroke-linejoin="round"/>
<path opacity="0.5" d="M268.265 246.629L267.803 243.13" stroke="white" stroke-linecap="round" stroke-linejoin="round"/>
</g>
<path d="M263.643 246.963V212.841" stroke="#006EE9" stroke-linecap="round" stroke-linejoin="round"/>
<path d="M263.643 224.97L259.464 221.319" stroke="#006EE9" stroke-linecap="round" stroke-linejoin="round"/>
<path d="M263.71 230.606L268.884 223.111" stroke="#006EE9" stroke-linecap="round" stroke-linejoin="round"/>
<path d="M263.643 233.855L257.472 228.353" stroke="#006EE9" stroke-linecap="round" stroke-linejoin="round"/>
<path d="M263.71 238.235L269.814 232.799" stroke="#006EE9" stroke-linecap="round" stroke-linejoin="round"/>
<path d="M263.71 242.018L258.93 238.235" stroke="#006EE9" stroke-linecap="round" stroke-linejoin="round"/>
<g opacity="0.7">
<path opacity="0.7" d="M263.643 246.963V212.841" stroke="white" stroke-linecap="round" stroke-linejoin="round"/>
<path opacity="0.7" d="M263.643 224.97L259.464 221.32" stroke="white" stroke-linecap="round" stroke-linejoin="round"/>
<path opacity="0.7" d="M263.71 230.606L268.885 223.111" stroke="white" stroke-linecap="round" stroke-linejoin="round"/>
<path opacity="0.7" d="M263.643 233.856L257.472 228.353" stroke="white" stroke-linecap="round" stroke-linejoin="round"/>
<path opacity="0.7" d="M263.71 238.235L269.814 232.799" stroke="white" stroke-linecap="round" stroke-linejoin="round"/>
<path opacity="0.7" d="M263.71 242.018L258.93 238.235" stroke="white" stroke-linecap="round" stroke-linejoin="round"/>
</g>
<path d="M260.807 248.967L247.681 234.159" stroke="#006EE9" stroke-linecap="round" stroke-linejoin="round"/>
<path d="M252.346 239.425L249.127 239.449" stroke="#006EE9" stroke-linecap="round" stroke-linejoin="round"/>
<path d="M254.545 241.842L253.907 236.601" stroke="#006EE9" stroke-linecap="round" stroke-linejoin="round"/>
<path d="M255.765 243.282L250.973 243.264" stroke="#006EE9" stroke-linecap="round" stroke-linejoin="round"/>
<path d="M257.478 245.152L258.031 240.445" stroke="#006EE9" stroke-linecap="round" stroke-linejoin="round"/>
<path d="M258.936 246.792L255.407 246.993" stroke="#006EE9" stroke-linecap="round" stroke-linejoin="round"/>
<g opacity="0.7">
<path opacity="0.7" d="M260.807 248.967L247.681 234.159" stroke="white" stroke-linecap="round" stroke-linejoin="round"/>
<path opacity="0.7" d="M252.346 239.425L249.127 239.45" stroke="white" stroke-linecap="round" stroke-linejoin="round"/>
<path opacity="0.7" d="M254.545 241.843L253.907 236.601" stroke="white" stroke-linecap="round" stroke-linejoin="round"/>
<path opacity="0.7" d="M255.765 243.282L250.973 243.264" stroke="white" stroke-linecap="round" stroke-linejoin="round"/>
<path opacity="0.7" d="M257.478 245.153L258.031 240.446" stroke="white" stroke-linecap="round" stroke-linejoin="round"/>
<path opacity="0.7" d="M258.936 246.793L255.407 246.993" stroke="white" stroke-linecap="round" stroke-linejoin="round"/>
</g>
<path d="M266.242 248.663L280.024 234.463" stroke="#006EE9" stroke-linecap="round" stroke-linejoin="round"/>
<path d="M275.122 239.51L274.861 236.303" stroke="#006EE9" stroke-linecap="round" stroke-linejoin="round"/>
<path d="M272.875 241.885L278.056 240.852" stroke="#006EE9" stroke-linecap="round" stroke-linejoin="round"/>
<path d="M271.533 243.209L271.193 238.429" stroke="#006EE9" stroke-linecap="round" stroke-linejoin="round"/>
<path d="M269.79 245.055L274.527 245.262" stroke="#006EE9" stroke-linecap="round" stroke-linejoin="round"/>
<path d="M268.265 246.628L267.803 243.13" stroke="#006EE9" stroke-linecap="round" stroke-linejoin="round"/>
<g opacity="0.7">
<path opacity="0.7" d="M266.242 248.663L280.024 234.463" stroke="white" stroke-linecap="round" stroke-linejoin="round"/>
<path opacity="0.7" d="M275.122 239.51L274.861 236.303" stroke="white" stroke-linecap="round" stroke-linejoin="round"/>
<path opacity="0.7" d="M272.875 241.885L278.056 240.852" stroke="white" stroke-linecap="round" stroke-linejoin="round"/>
<path opacity="0.7" d="M271.533 243.209L271.193 238.429" stroke="white" stroke-linecap="round" stroke-linejoin="round"/>
<path opacity="0.7" d="M269.789 245.055L274.527 245.262" stroke="white" stroke-linecap="round" stroke-linejoin="round"/>
<path opacity="0.7" d="M268.265 246.628L267.803 243.13" stroke="white" stroke-linecap="round" stroke-linejoin="round"/>
</g>
<path d="M18.6318 163.717C18.8322 156.131 18.2492 143.194 24.8998 137.867C30.7427 133.191 35.2858 139.538 36.9196 144.658C40.8978 157.078 39.0271 170.774 39.021 183.596C39.021 183.79 39.021 183.985 39.021 184.203C39.3369 193.642 40.4666 203.852 39.4401 213.272C39.4401 213.272 40.4484 203.833 47.8643 207.878C55.2802 211.923 44.1533 233.151 44.1533 233.151C44.1533 233.151 52.9176 226.749 56.9626 232.143C61.0077 237.536 51.9215 243.573 51.9215 243.573C51.9215 243.573 60.3456 241.217 60.3456 243.573C60.3456 245.93 57.6489 247.952 49.899 248.967H8.10616C8.10616 248.967 1.3644 245.256 2.71276 241.217C4.06111 237.178 11.1369 239.528 11.1369 239.528C11.1369 239.528 0.356176 226.385 1.03035 220.657C1.70453 214.93 15.5221 221.672 15.5221 221.672C15.5221 221.672 4.73528 194.377 6.75781 182.266C8.3491 172.712 15.7711 179.229 19.804 182.922C18.8542 176.567 18.462 170.14 18.6318 163.717Z" fill="#006EE9" stroke="white" stroke-linecap="round" stroke-linejoin="round"/>
<path opacity="0.5" d="M18.6318 163.717C18.8322 156.131 18.2492 143.194 24.8998 137.867C30.7427 133.191 35.2858 139.538 36.9196 144.658C40.8978 157.078 39.0271 170.774 39.021 183.596C39.021 183.79 39.021 183.985 39.021 184.203C39.3369 193.642 40.4666 203.852 39.4401 213.272C39.4401 213.272 40.4484 203.833 47.8643 207.878C55.2802 211.923 44.1533 233.151 44.1533 233.151C44.1533 233.151 52.9176 226.749 56.9626 232.143C61.0077 237.536 51.9215 243.573 51.9215 243.573C51.9215 243.573 60.3456 241.217 60.3456 243.573C60.3456 245.93 57.6489 247.952 49.899 248.967H8.10616C8.10616 248.967 1.3644 245.256 2.71276 241.217C4.06111 237.178 11.1369 239.528 11.1369 239.528C11.1369 239.528 0.356176 226.385 1.03035 220.657C1.70453 214.93 15.5221 221.672 15.5221 221.672C15.5221 221.672 4.73528 194.377 6.75781 182.266C8.3491 172.712 15.7711 179.229 19.804 182.922C18.8542 176.567 18.462 170.14 18.6318 163.717Z" fill="white"/>
<path d="M32.0303 248.627L28.9995 155.961" stroke="white" stroke-linecap="round" stroke-linejoin="round"/>
<path d="M30.3478 209.877L14.5078 195.051" stroke="white" stroke-linecap="round" stroke-linejoin="round"/>
<path d="M22.932 203.135L19.5611 193.702" stroke="white" stroke-linecap="round" stroke-linejoin="round"/>
<path d="M43.4852 221.332L31.3561 234.475" stroke="white" stroke-linecap="round" stroke-linejoin="round"/>
<path d="M11.1369 228.747L31.3561 239.194" stroke="white" stroke-linecap="round" stroke-linejoin="round"/>
<path d="M21.9237 234.809L14.5078 234.475" stroke="white" stroke-linecap="round" stroke-linejoin="round"/>
<path d="M32.0303 248.627L28.9995 155.961" stroke="#006EE9" stroke-linecap="round" stroke-linejoin="round"/>
<path d="M30.3478 209.877L14.5078 195.051" stroke="#006EE9" stroke-linecap="round" stroke-linejoin="round"/>
<path d="M22.932 203.135L19.5611 193.702" stroke="#006EE9" stroke-linecap="round" stroke-linejoin="round"/>
<path d="M43.4852 221.332L31.3561 234.475" stroke="#006EE9" stroke-linecap="round" stroke-linejoin="round"/>
<path d="M11.1369 228.747L31.3561 239.194" stroke="#006EE9" stroke-linecap="round" stroke-linejoin="round"/>
<path d="M21.9237 234.809L14.5078 234.475" stroke="#006EE9" stroke-linecap="round" stroke-linejoin="round"/>
<g opacity="0.8">
<path opacity="0.8" d="M32.0303 248.627L28.9995 155.961" stroke="white" stroke-linecap="round" stroke-linejoin="round"/>
<path opacity="0.8" d="M30.3478 209.877L14.5078 195.051" stroke="white" stroke-linecap="round" stroke-linejoin="round"/>
<path opacity="0.8" d="M22.9319 203.135L19.561 193.703" stroke="white" stroke-linecap="round" stroke-linejoin="round"/>
<path opacity="0.8" d="M43.4852 221.332L31.3561 234.475" stroke="white" stroke-linecap="round" stroke-linejoin="round"/>
<path opacity="0.8" d="M11.1369 228.747L31.3561 239.194" stroke="white" stroke-linecap="round" stroke-linejoin="round"/>
<path opacity="0.8" d="M21.9237 234.809L14.5078 234.475" stroke="white" stroke-linecap="round" stroke-linejoin="round"/>
</g>
<path d="M91.133 229.902C91.133 239.322 83.6684 246.963 83.6684 246.963C83.6684 246.963 76.2161 239.322 76.2161 229.902C76.2161 220.481 83.6806 212.841 83.6806 212.841C83.6806 212.841 91.133 220.475 91.133 229.902Z" fill="#006EE9"/>
<path d="M96.3017 244.436C92.6575 248.524 86.4988 248.967 86.4988 248.967C86.4988 248.967 86.2012 242.778 89.8271 238.69C93.4531 234.603 99.63 234.159 99.63 234.159C99.63 234.159 99.9033 240.348 96.3017 244.436Z" fill="#006EE9"/>
<path d="M77.2851 238.55C81.0872 242.468 81.069 248.663 81.069 248.663C81.069 248.663 74.8799 248.499 71.0717 244.575C67.2635 240.652 67.2878 234.463 67.2878 234.463C67.2878 234.463 73.4769 234.627 77.2851 238.55Z" fill="#006EE9"/>
<g opacity="0.5">
<path opacity="0.5" d="M91.133 229.902C91.133 239.322 83.6685 246.963 83.6685 246.963C83.6685 246.963 76.2161 239.322 76.2161 229.902C76.2161 220.481 83.6806 212.841 83.6806 212.841C83.6806 212.841 91.133 220.475 91.133 229.902Z" fill="white"/>
<path opacity="0.5" d="M83.6685 246.963V212.841" stroke="white" stroke-linecap="round" stroke-linejoin="round"/>
<path opacity="0.5" d="M83.6685 224.97L87.8471 221.32" stroke="white" stroke-linecap="round" stroke-linejoin="round"/>
<path opacity="0.5" d="M83.6017 230.606L78.4269 223.111" stroke="white" stroke-linecap="round" stroke-linejoin="round"/>
<path opacity="0.5" d="M83.6685 233.856L89.8393 228.353" stroke="white" stroke-linecap="round" stroke-linejoin="round"/>
<path opacity="0.5" d="M83.6017 238.235L77.4977 232.799" stroke="white" stroke-linecap="round" stroke-linejoin="round"/>
<path opacity="0.5" d="M83.6016 242.018L88.3755 238.235" stroke="white" stroke-linecap="round" stroke-linejoin="round"/>
<path opacity="0.5" d="M96.3017 244.436C92.6575 248.523 86.4988 248.967 86.4988 248.967C86.4988 248.967 86.2012 242.778 89.8272 238.69C93.4532 234.602 99.6301 234.159 99.6301 234.159C99.6301 234.159 99.9034 240.348 96.3017 244.436Z" fill="white"/>
<path opacity="0.5" d="M86.4988 248.967L99.63 234.159" stroke="white" stroke-linecap="round" stroke-linejoin="round"/>
<path opacity="0.5" d="M94.9655 239.425L98.1784 239.449" stroke="white" stroke-linecap="round" stroke-linejoin="round"/>
<path opacity="0.5" d="M92.7668 241.842L93.4045 236.601" stroke="white" stroke-linecap="round" stroke-linejoin="round"/>
<path opacity="0.5" d="M91.5399 243.282L96.3381 243.264" stroke="white" stroke-linecap="round" stroke-linejoin="round"/>
<path opacity="0.5" d="M89.8272 245.152L89.2745 240.445" stroke="white" stroke-linecap="round" stroke-linejoin="round"/>
<path opacity="0.5" d="M88.3756 246.792L91.9044 246.993" stroke="white" stroke-linecap="round" stroke-linejoin="round"/>
<path opacity="0.5" d="M77.2851 238.551C81.0872 242.468 81.069 248.663 81.069 248.663C81.069 248.663 74.8799 248.499 71.0717 244.576C67.2635 240.652 67.2878 234.463 67.2878 234.463C67.2878 234.463 73.4769 234.627 77.2851 238.551Z" fill="white"/>
<path opacity="0.5" d="M81.069 248.663L67.2878 234.463" stroke="white" stroke-linecap="round" stroke-linejoin="round"/>
<path opacity="0.5" d="M72.1832 239.51L72.4504 236.303" stroke="white" stroke-linecap="round" stroke-linejoin="round"/>
<path opacity="0.5" d="M74.4365 241.885L69.2557 240.853" stroke="white" stroke-linecap="round" stroke-linejoin="round"/>
<path opacity="0.5" d="M75.7728 243.209L76.119 238.429" stroke="white" stroke-linecap="round" stroke-linejoin="round"/>
<path opacity="0.5" d="M77.5158 245.055L72.7784 245.262" stroke="white" stroke-linecap="round" stroke-linejoin="round"/>
<path opacity="0.5" d="M79.0464 246.629L79.502 243.13" stroke="white" stroke-linecap="round" stroke-linejoin="round"/>
</g>
<path d="M83.6685 246.963V212.841" stroke="#006EE9" stroke-linecap="round" stroke-linejoin="round"/>
<path d="M83.6685 224.97L87.8471 221.319" stroke="#006EE9" stroke-linecap="round" stroke-linejoin="round"/>
<path d="M83.6016 230.606L78.4269 223.111" stroke="#006EE9" stroke-linecap="round" stroke-linejoin="round"/>
<path d="M83.6685 233.855L89.8393 228.353" stroke="#006EE9" stroke-linecap="round" stroke-linejoin="round"/>
<path d="M83.6017 238.235L77.4977 232.799" stroke="#006EE9" stroke-linecap="round" stroke-linejoin="round"/>
<path d="M83.6017 242.018L88.3756 238.235" stroke="#006EE9" stroke-linecap="round" stroke-linejoin="round"/>
<g opacity="0.7">
<path opacity="0.7" d="M83.6685 246.963V212.841" stroke="white" stroke-linecap="round" stroke-linejoin="round"/>
<path opacity="0.7" d="M83.6685 224.97L87.8471 221.32" stroke="white" stroke-linecap="round" stroke-linejoin="round"/>
<path opacity="0.7" d="M83.6016 230.606L78.4269 223.111" stroke="white" stroke-linecap="round" stroke-linejoin="round"/>
<path opacity="0.7" d="M83.6685 233.856L89.8393 228.353" stroke="white" stroke-linecap="round" stroke-linejoin="round"/>
<path opacity="0.7" d="M83.6016 238.235L77.4976 232.799" stroke="white" stroke-linecap="round" stroke-linejoin="round"/>
<path opacity="0.7" d="M83.6017 242.018L88.3756 238.235" stroke="white" stroke-linecap="round" stroke-linejoin="round"/>
</g>
<path d="M86.4988 248.967L99.63 234.159" stroke="#006EE9" stroke-linecap="round" stroke-linejoin="round"/>
<path d="M94.9655 239.425L98.1784 239.449" stroke="#006EE9" stroke-linecap="round" stroke-linejoin="round"/>
<path d="M92.7668 241.842L93.4045 236.601" stroke="#006EE9" stroke-linecap="round" stroke-linejoin="round"/>
<path d="M91.5399 243.282L96.3381 243.264" stroke="#006EE9" stroke-linecap="round" stroke-linejoin="round"/>
<path d="M89.8272 245.152L89.2745 240.445" stroke="#006EE9" stroke-linecap="round" stroke-linejoin="round"/>
<path d="M88.3755 246.792L91.9043 246.993" stroke="#006EE9" stroke-linecap="round" stroke-linejoin="round"/>
<g opacity="0.7">
<path opacity="0.7" d="M86.4988 248.967L99.63 234.159" stroke="white" stroke-linecap="round" stroke-linejoin="round"/>
<path opacity="0.7" d="M94.9655 239.425L98.1784 239.45" stroke="white" stroke-linecap="round" stroke-linejoin="round"/>
<path opacity="0.7" d="M92.7668 241.843L93.4045 236.601" stroke="white" stroke-linecap="round" stroke-linejoin="round"/>
<path opacity="0.7" d="M91.5399 243.282L96.3381 243.264" stroke="white" stroke-linecap="round" stroke-linejoin="round"/>
<path opacity="0.7" d="M89.8272 245.153L89.2745 240.446" stroke="white" stroke-linecap="round" stroke-linejoin="round"/>
<path opacity="0.7" d="M88.3755 246.793L91.9043 246.993" stroke="white" stroke-linecap="round" stroke-linejoin="round"/>
</g>
<path d="M81.069 248.663L67.2878 234.463" stroke="#006EE9" stroke-linecap="round" stroke-linejoin="round"/>
<path d="M72.1832 239.51L72.4505 236.303" stroke="#006EE9" stroke-linecap="round" stroke-linejoin="round"/>
<path d="M74.4365 241.885L69.2557 240.852" stroke="#006EE9" stroke-linecap="round" stroke-linejoin="round"/>
<path d="M75.7728 243.209L76.119 238.429" stroke="#006EE9" stroke-linecap="round" stroke-linejoin="round"/>
<path d="M77.5158 245.055L72.7784 245.262" stroke="#006EE9" stroke-linecap="round" stroke-linejoin="round"/>
<path d="M79.0464 246.628L79.5019 243.13" stroke="#006EE9" stroke-linecap="round" stroke-linejoin="round"/>
<g opacity="0.7">
<path opacity="0.7" d="M81.069 248.663L67.2878 234.463" stroke="white" stroke-linecap="round" stroke-linejoin="round"/>
<path opacity="0.7" d="M72.1832 239.51L72.4504 236.303" stroke="white" stroke-linecap="round" stroke-linejoin="round"/>
<path opacity="0.7" d="M74.4365 241.885L69.2557 240.852" stroke="white" stroke-linecap="round" stroke-linejoin="round"/>
<path opacity="0.7" d="M75.7728 243.209L76.119 238.429" stroke="white" stroke-linecap="round" stroke-linejoin="round"/>
<path opacity="0.7" d="M77.5159 245.055L72.7784 245.262" stroke="white" stroke-linecap="round" stroke-linejoin="round"/>
<path opacity="0.7" d="M79.0464 246.628L79.502 243.13" stroke="white" stroke-linecap="round" stroke-linejoin="round"/>
</g>
<path d="M259.264 68.4578H95.0748C95.0257 68.4586 94.9768 68.4496 94.9312 68.4314C94.8855 68.4131 94.8439 68.386 94.8089 68.3515C94.7738 68.317 94.746 68.2759 94.727 68.2305C94.708 68.1852 94.6982 68.1365 94.6982 68.0873C94.6982 67.9874 94.7379 67.8917 94.8085 67.821C94.8792 67.7504 94.9749 67.7108 95.0748 67.7108H259.264C259.313 67.7107 259.362 67.7205 259.407 67.7395C259.452 67.7585 259.494 67.7864 259.528 67.8214C259.562 67.8565 259.59 67.898 259.608 67.9437C259.626 67.9893 259.635 68.0382 259.634 68.0873C259.634 68.1856 259.595 68.2798 259.526 68.3493C259.456 68.4188 259.362 68.4578 259.264 68.4578Z" fill="#006EE9"/>
<g opacity="0.3">
<path opacity="0.3" d="M259.264 68.4578H95.0748C95.0257 68.4586 94.9768 68.4496 94.9312 68.4314C94.8855 68.4131 94.8439 68.386 94.8089 68.3515C94.7738 68.317 94.746 68.2759 94.727 68.2305C94.708 68.1852 94.6982 68.1365 94.6982 68.0873C94.6982 67.9874 94.7379 67.8917 94.8085 67.821C94.8792 67.7504 94.9749 67.7108 95.0748 67.7108H259.264C259.313 67.7107 259.362 67.7205 259.407 67.7395C259.452 67.7585 259.494 67.7864 259.528 67.8214C259.562 67.8565 259.59 67.898 259.608 67.9437C259.626 67.9893 259.635 68.0382 259.634 68.0873C259.634 68.1856 259.595 68.2798 259.526 68.3493C259.456 68.4188 259.362 68.4578 259.264 68.4578Z" fill="white"/>
</g>
<path d="M258.936 133.579H94.7468C94.6976 133.58 94.6488 133.571 94.6032 133.553C94.5575 133.535 94.5159 133.507 94.4809 133.473C94.4458 133.438 94.418 133.397 94.399 133.352C94.38 133.307 94.3702 133.258 94.3702 133.209C94.3702 133.109 94.4099 133.013 94.4805 132.942C94.5512 132.872 94.6469 132.832 94.7468 132.832H258.936C258.985 132.832 259.034 132.842 259.079 132.861C259.124 132.88 259.166 132.908 259.2 132.943C259.234 132.978 259.262 133.019 259.28 133.065C259.298 133.111 259.307 133.16 259.306 133.209C259.306 133.257 259.297 133.306 259.278 133.351C259.26 133.395 259.232 133.436 259.198 133.471C259.163 133.505 259.123 133.532 259.078 133.551C259.033 133.57 258.985 133.579 258.936 133.579Z" fill="#006EE9"/>
<g opacity="0.3">
<path opacity="0.3" d="M258.936 133.579H94.7468C94.6976 133.58 94.6488 133.571 94.6032 133.553C94.5575 133.535 94.5159 133.507 94.4809 133.473C94.4458 133.439 94.418 133.397 94.399 133.352C94.38 133.307 94.3702 133.258 94.3702 133.209C94.3702 133.109 94.4099 133.013 94.4805 132.943C94.5512 132.872 94.6469 132.832 94.7468 132.832H258.936C258.985 132.832 259.034 132.842 259.079 132.861C259.124 132.88 259.166 132.908 259.2 132.943C259.234 132.978 259.262 133.02 259.28 133.065C259.298 133.111 259.307 133.16 259.306 133.209C259.306 133.258 259.297 133.306 259.278 133.351C259.26 133.396 259.232 133.436 259.198 133.471C259.163 133.505 259.123 133.533 259.078 133.551C259.033 133.57 258.985 133.579 258.936 133.579Z" fill="white"/>
</g>
<path d="M258.936 186.815H94.7468C94.6469 186.815 94.5512 186.775 94.4805 186.705C94.4099 186.634 94.3702 186.538 94.3702 186.438C94.3702 186.389 94.38 186.341 94.399 186.295C94.418 186.25 94.4458 186.209 94.4809 186.174C94.5159 186.14 94.5575 186.113 94.6032 186.094C94.6488 186.076 94.6976 186.067 94.7468 186.068H258.936C258.985 186.068 259.033 186.078 259.078 186.096C259.123 186.115 259.163 186.142 259.198 186.176C259.232 186.211 259.26 186.252 259.278 186.297C259.297 186.342 259.306 186.39 259.306 186.438C259.307 186.488 259.298 186.536 259.28 186.582C259.262 186.628 259.234 186.669 259.2 186.704C259.166 186.739 259.124 186.767 259.079 186.786C259.034 186.805 258.985 186.815 258.936 186.815Z" fill="#006EE9"/>
<g opacity="0.3">
<path opacity="0.3" d="M258.936 186.815H94.7468C94.6469 186.815 94.5512 186.775 94.4805 186.705C94.4099 186.634 94.3702 186.538 94.3702 186.438C94.3702 186.389 94.38 186.34 94.399 186.295C94.418 186.25 94.4458 186.209 94.4809 186.174C94.5159 186.14 94.5575 186.112 94.6032 186.094C94.6488 186.076 94.6976 186.067 94.7468 186.068H258.936C258.985 186.068 259.033 186.077 259.078 186.096C259.123 186.115 259.163 186.142 259.198 186.176C259.232 186.211 259.26 186.251 259.278 186.296C259.297 186.341 259.306 186.39 259.306 186.438C259.307 186.487 259.298 186.536 259.28 186.582C259.262 186.628 259.234 186.669 259.2 186.704C259.166 186.739 259.124 186.767 259.079 186.786C259.034 186.805 258.985 186.815 258.936 186.815Z" fill="white"/>
</g>
<path d="M129.652 195.822V251.226" stroke="#263238" stroke-width="0.265171" stroke-miterlimit="10"/>
<path d="M137.566 195.822V251.226" stroke="#263238" stroke-width="0.265171" stroke-miterlimit="10"/>
<path d="M145.48 195.822V251.226" stroke="#263238" stroke-width="0.265171" stroke-miterlimit="10"/>
<path d="M153.394 195.822V251.226" stroke="#263238" stroke-width="0.265171" stroke-miterlimit="10"/>
<path d="M161.308 195.822V251.226" stroke="#263238" stroke-width="0.265171" stroke-miterlimit="10"/>
<path d="M169.222 195.822V251.226" stroke="#263238" stroke-width="0.265171" stroke-miterlimit="10"/>
<path d="M177.136 195.822V251.226" stroke="#263238" stroke-width="0.265171" stroke-miterlimit="10"/>
<path d="M185.05 195.822V251.226" stroke="#263238" stroke-width="0.265171" stroke-miterlimit="10"/>
<path d="M192.964 195.822V251.226" stroke="#263238" stroke-width="0.265171" stroke-miterlimit="10"/>
<path d="M200.878 195.822V251.226" stroke="#263238" stroke-width="0.265171" stroke-miterlimit="10"/>
<path d="M208.792 195.822V251.226" stroke="#263238" stroke-width="0.265171" stroke-miterlimit="10"/>
<path d="M216.706 195.822V251.226" stroke="#263238" stroke-width="0.265171" stroke-miterlimit="10"/>
<path d="M130.047 200.967H216.311" stroke="#263238" stroke-width="0.265171" stroke-miterlimit="10"/>
<path d="M130.047 208.486H216.311" stroke="#263238" stroke-width="0.265171" stroke-miterlimit="10"/>
<path d="M130.047 216.005H216.311" stroke="#263238" stroke-width="0.265171" stroke-miterlimit="10"/>
<path d="M130.047 223.524H216.311" stroke="#263238" stroke-width="0.265171" stroke-miterlimit="10"/>
<path d="M130.047 231.043H216.311" stroke="#263238" stroke-width="0.265171" stroke-miterlimit="10"/>
<path d="M130.047 238.563H216.311" stroke="#263238" stroke-width="0.265171" stroke-miterlimit="10"/>
<path d="M130.047 246.082H216.311" stroke="#263238" stroke-width="0.265171" stroke-miterlimit="10"/>
<path d="M148.171 215.258L136.594 250.947H160.84L149.258 215.258C149.221 215.143 149.148 215.042 149.051 214.971C148.953 214.9 148.835 214.861 148.714 214.861C148.593 214.861 148.476 214.9 148.378 214.971C148.28 215.042 148.208 215.143 148.171 215.258Z" fill="#006EE9" stroke="#263238" stroke-width="1.06068" stroke-miterlimit="10"/>
<path d="M170.242 203.439L154.833 250.947H186.757L171.33 203.439C171.293 203.324 171.22 203.223 171.122 203.152C171.025 203.081 170.907 203.042 170.786 203.042C170.665 203.042 170.547 203.081 170.45 203.152C170.352 203.223 170.279 203.324 170.242 203.439Z" fill="#263238" stroke="#263238" stroke-width="1.06068" stroke-miterlimit="10"/>
<path d="M190.553 223.421L181.618 250.947H200.568L191.616 223.421C191.574 223.314 191.5 223.222 191.406 223.158C191.311 223.093 191.199 223.059 191.084 223.059C190.969 223.059 190.857 223.093 190.762 223.158C190.668 223.222 190.595 223.314 190.553 223.421Z" fill="#006EE9" stroke="#263238" stroke-width="1.06068" stroke-miterlimit="10"/>
<path d="M202.791 232.871L196.93 250.946H209.739L203.878 232.871C203.841 232.756 203.769 232.656 203.671 232.584C203.573 232.513 203.456 232.475 203.335 232.475C203.214 232.475 203.096 232.513 202.998 232.584C202.901 232.656 202.828 232.756 202.791 232.871Z" fill="#263238" stroke="#263238" stroke-width="1.06068" stroke-miterlimit="10"/>
<path d="M128.607 178.312C125.135 178.312 121.74 177.282 118.852 175.353C115.965 173.423 113.714 170.681 112.385 167.472C111.056 164.264 110.708 160.733 111.386 157.327C112.063 153.921 113.736 150.792 116.191 148.337C118.647 145.881 121.776 144.209 125.182 143.531C128.588 142.854 132.118 143.201 135.327 144.53C138.535 145.859 141.278 148.11 143.207 150.998C145.137 153.885 146.166 157.28 146.166 160.753C146.162 165.408 144.31 169.872 141.018 173.164C137.726 176.455 133.263 178.307 128.607 178.312ZM128.607 148.35C126.155 148.352 123.757 149.08 121.719 150.444C119.68 151.807 118.091 153.744 117.153 156.011C116.216 158.277 115.971 160.771 116.45 163.176C116.929 165.582 118.111 167.791 119.846 169.525C121.581 171.259 123.791 172.439 126.196 172.917C128.602 173.395 131.095 173.149 133.361 172.211C135.627 171.272 137.564 169.682 138.926 167.643C140.289 165.603 141.016 163.206 141.016 160.753C141.013 157.463 139.704 154.31 137.378 151.984C135.051 149.659 131.897 148.352 128.607 148.35Z" fill="#263238" stroke="#263238" stroke-width="1.06068" stroke-miterlimit="10"/>
<path d="M128.607 178.312C126.238 178.319 123.891 177.843 121.712 176.912C119.532 175.982 117.566 174.617 115.932 172.9L119.655 169.335C120.808 170.548 122.198 171.512 123.737 172.169C125.276 172.826 126.934 173.161 128.607 173.155C130.236 173.155 131.849 172.834 133.354 172.211C134.858 171.588 136.226 170.674 137.377 169.523C138.529 168.371 139.443 167.004 140.066 165.499C140.689 163.994 141.01 162.381 141.01 160.753C141.01 159.124 140.689 157.511 140.066 156.007C139.443 154.502 138.529 153.135 137.377 151.983C136.226 150.831 134.858 149.918 133.354 149.294C131.849 148.671 130.236 148.35 128.607 148.35V143.194C130.913 143.194 133.197 143.648 135.327 144.53C137.457 145.413 139.393 146.706 141.024 148.337C142.654 149.967 143.947 151.903 144.83 154.033C145.712 156.164 146.166 158.447 146.166 160.753C146.166 163.059 145.712 165.342 144.83 167.472C143.947 169.603 142.654 171.538 141.024 173.169C139.393 174.799 137.457 176.093 135.327 176.975C133.197 177.858 130.913 178.312 128.607 178.312Z" fill="#006EE9" stroke="#263238" stroke-width="1.06068" stroke-miterlimit="10"/>
<path d="M171.913 178.312C168.44 178.313 165.044 177.284 162.156 175.355C159.267 173.427 157.016 170.685 155.686 167.476C154.356 164.268 154.007 160.737 154.684 157.331C155.361 153.924 157.033 150.795 159.488 148.339C161.944 145.883 165.072 144.21 168.479 143.532C171.885 142.854 175.416 143.201 178.625 144.53C181.833 145.859 184.576 148.109 186.506 150.997C188.436 153.885 189.465 157.28 189.465 160.753C189.461 165.407 187.61 169.87 184.319 173.161C181.029 176.453 176.567 178.305 171.913 178.312ZM171.913 148.35C169.46 148.353 167.063 149.082 165.026 150.446C162.988 151.811 161.4 153.749 160.463 156.015C159.526 158.281 159.282 160.775 159.762 163.18C160.242 165.585 161.424 167.794 163.159 169.527C164.894 171.26 167.104 172.44 169.51 172.918C171.915 173.395 174.408 173.149 176.674 172.21C178.939 171.271 180.876 169.681 182.238 167.642C183.6 165.603 184.327 163.205 184.327 160.753C184.322 157.463 183.012 154.309 180.685 151.984C178.357 149.659 175.203 148.352 171.913 148.35Z" fill="#263238" stroke="#263238" stroke-width="1.06068" stroke-miterlimit="10"/>
<path d="M178.745 176.927L176.741 172.183C179.375 171.067 181.542 169.075 182.876 166.544C184.21 164.013 184.628 161.099 184.06 158.295C183.492 155.491 181.973 152.97 179.759 151.157C177.545 149.345 174.773 148.354 171.913 148.35V143.194C175.964 143.194 179.891 144.596 183.027 147.161C186.163 149.726 188.316 153.296 189.12 157.267C189.924 161.238 189.331 165.365 187.44 168.948C185.549 172.531 182.477 175.35 178.745 176.927Z" fill="#006EE9" stroke="#263238" stroke-width="1.06068" stroke-miterlimit="10"/>
<path d="M215.212 178.312C211.739 178.312 208.344 177.282 205.456 175.353C202.569 173.423 200.318 170.681 198.989 167.472C197.66 164.264 197.313 160.733 197.99 157.327C198.668 153.921 200.34 150.792 202.796 148.337C205.251 145.881 208.38 144.209 211.786 143.531C215.192 142.854 218.723 143.201 221.931 144.53C225.14 145.859 227.882 148.11 229.811 150.998C231.741 153.885 232.771 157.28 232.771 160.753C232.766 165.408 230.914 169.872 227.622 173.163C224.33 176.455 219.867 178.307 215.212 178.312ZM215.212 148.35C212.759 148.35 210.361 149.078 208.321 150.441C206.282 151.803 204.692 153.74 203.753 156.007C202.815 158.273 202.569 160.767 203.048 163.172C203.526 165.578 204.707 167.788 206.442 169.523C208.176 171.257 210.386 172.438 212.792 172.917C215.198 173.395 217.692 173.15 219.958 172.211C222.224 171.272 224.161 169.683 225.524 167.643C226.887 165.604 227.614 163.206 227.614 160.753C227.611 157.464 226.303 154.312 223.978 151.987C221.653 149.661 218.5 148.354 215.212 148.35Z" fill="#263238" stroke="#263238" stroke-width="1.06068" stroke-miterlimit="10"/>
<path d="M227.371 158.281C226.795 155.482 225.273 152.967 223.061 151.159C220.849 149.35 218.081 148.359 215.224 148.35V143.194C219.271 143.204 223.191 144.608 226.324 147.168C229.458 149.729 231.614 153.291 232.431 157.254L227.371 158.281Z" fill="#006EE9" stroke="#263238" stroke-width="1.06068" stroke-miterlimit="10"/>
<path d="M135.61 123.752H218.072" stroke="#263238" stroke-width="1.06068" stroke-miterlimit="10"/>
<path d="M135.61 123.752V121.997" stroke="#263238" stroke-width="1.06068" stroke-miterlimit="10"/>
<path d="M152.1 123.752V121.997" stroke="#263238" stroke-width="1.06068" stroke-miterlimit="10"/>
<path d="M168.596 123.752V121.997" stroke="#263238" stroke-width="1.06068" stroke-miterlimit="10"/>
<path d="M185.086 123.752V121.997" stroke="#263238" stroke-width="1.06068" stroke-miterlimit="10"/>
<path d="M201.576 123.752V121.997" stroke="#263238" stroke-width="1.06068" stroke-miterlimit="10"/>
<path d="M218.072 123.752V121.997" stroke="#263238" stroke-width="1.06068" stroke-miterlimit="10"/>
<path d="M149.792 100.314H137.918V114.374H149.792V100.314Z" fill="#006EE9" stroke="#263238" stroke-width="1.06068" stroke-miterlimit="10"/>
<path d="M166.282 83.909H154.408V116.719H166.282V83.909Z" fill="#006EE9" stroke="#263238" stroke-width="1.06068" stroke-miterlimit="10"/>
<path d="M182.778 60.9447H170.904V97.5081H182.778V60.9447Z" fill="#006EE9" stroke="#263238" stroke-width="1.06068" stroke-miterlimit="10"/>
<path d="M199.268 95.1634H187.394V102.197H199.268V95.1634Z" fill="#006EE9" stroke="#263238" stroke-width="1.06068" stroke-miterlimit="10"/>
<path d="M215.758 90.9422H203.884V109.224H215.758V90.9422Z" fill="#006EE9" stroke="#263238" stroke-width="1.06068" stroke-miterlimit="10"/>
<path d="M149.792 114.38H137.918V123.758H149.792V114.38Z" fill="#263238" stroke="#263238" stroke-width="1.06068" stroke-miterlimit="10"/>
<path d="M166.282 116.725H154.408V123.758H166.282V116.725Z" fill="#263238" stroke="#263238" stroke-width="1.06068" stroke-miterlimit="10"/>
<path d="M182.778 97.5018H170.904V123.752H182.778V97.5018Z" fill="#263238" stroke="#263238" stroke-width="1.06068" stroke-miterlimit="10"/>
<path d="M199.268 102.191H187.394V123.752H199.268V102.191Z" fill="#263238" stroke="#263238" stroke-width="1.06068" stroke-miterlimit="10"/>
<path d="M215.758 109.224H203.884V123.752H215.758V109.224Z" fill="#263238" stroke="#263238" stroke-width="1.06068" stroke-miterlimit="10"/>
<path d="M240.047 54.306C239.904 54.307 239.763 54.2725 239.637 54.2058C239.511 54.139 239.403 54.0419 239.324 53.9233L213.778 16.6675L187.862 44.3027L161.399 27.0535L135.799 32.9935L109.797 54.1116C109.617 54.2582 109.386 54.3271 109.154 54.3032C108.923 54.2793 108.711 54.1645 108.564 53.9841C108.418 53.8036 108.349 53.5724 108.373 53.3412C108.397 53.1099 108.512 52.8977 108.692 52.7511L135.009 31.3779L161.733 25.1767L187.595 42.0372L213.997 13.8797L240.77 52.9333C240.86 53.0644 240.914 53.2178 240.924 53.3769C240.933 53.536 240.9 53.6948 240.826 53.8362C240.752 53.9775 240.641 54.096 240.505 54.1788C240.369 54.2616 240.212 54.3056 240.053 54.306H240.047Z" fill="#263238"/>
<path d="M111.443 53.4313C111.443 53.8602 111.316 54.2794 111.078 54.636C110.84 54.9925 110.501 55.2705 110.105 55.4346C109.709 55.5987 109.273 55.6416 108.852 55.558C108.431 55.4743 108.045 55.2678 107.742 54.9645C107.439 54.6613 107.232 54.275 107.148 53.8543C107.065 53.4337 107.108 52.9978 107.272 52.6016C107.436 52.2054 107.714 51.8667 108.07 51.6285C108.427 51.3902 108.846 51.263 109.275 51.263C109.85 51.263 110.402 51.4915 110.808 51.8981C111.215 52.3047 111.443 52.8563 111.443 53.4313Z" fill="#006EE9"/>
<path d="M135.404 34.354C136.601 34.354 137.572 33.3832 137.572 32.1857C137.572 30.9882 136.601 30.0174 135.404 30.0174C134.206 30.0174 133.236 30.9882 133.236 32.1857C133.236 33.3832 134.206 34.354 135.404 34.354Z" fill="#006EE9"/>
<path d="M161.563 28.2805C162.761 28.2805 163.731 27.3097 163.731 26.1122C163.731 24.9147 162.761 23.9439 161.563 23.9439C160.366 23.9439 159.395 24.9147 159.395 26.1122C159.395 27.3097 160.366 28.2805 161.563 28.2805Z" fill="#006EE9"/>
<path d="M187.722 45.3351C188.92 45.3351 189.891 44.3643 189.891 43.1668C189.891 41.9693 188.92 40.9985 187.722 40.9985C186.525 40.9985 185.554 41.9693 185.554 43.1668C185.554 44.3643 186.525 45.3351 187.722 45.3351Z" fill="#006EE9"/>
<path d="M216.05 15.2767C216.05 15.7056 215.923 16.1248 215.684 16.4814C215.446 16.8379 215.108 17.1158 214.711 17.28C214.315 17.4441 213.879 17.487 213.459 17.4033C213.038 17.3197 212.652 17.1132 212.348 16.8099C212.045 16.5067 211.839 16.1203 211.755 15.6997C211.671 15.2791 211.714 14.8431 211.878 14.4469C212.042 14.0507 212.32 13.7121 212.677 13.4738C213.033 13.2356 213.453 13.1084 213.882 13.1084C214.457 13.1084 215.008 13.3369 215.415 13.7435C215.821 14.1501 216.05 14.7016 216.05 15.2767Z" fill="#006EE9"/>
<path d="M242.209 53.4313C242.209 53.8602 242.082 54.2794 241.844 54.636C241.605 54.9925 241.267 55.2705 240.871 55.4346C240.474 55.5987 240.038 55.6416 239.618 55.558C239.197 55.4743 238.811 55.2678 238.508 54.9645C238.204 54.6613 237.998 54.275 237.914 53.8543C237.83 53.4337 237.873 52.9978 238.037 52.6016C238.202 52.2054 238.48 51.8667 238.836 51.6285C239.193 51.3902 239.612 51.263 240.041 51.263C240.616 51.263 241.167 51.4915 241.574 51.8981C241.981 52.3047 242.209 52.8563 242.209 53.4313Z" fill="#006EE9"/>
<path d="M286.802 260.094C309.954 260.094 328.722 257.573 328.722 254.463C328.722 251.354 309.954 248.833 286.802 248.833C263.65 248.833 244.881 251.354 244.881 254.463C244.881 257.573 263.65 260.094 286.802 260.094Z" fill="#006EE9"/>
<path opacity="0.7" d="M286.802 260.094C309.954 260.094 328.722 257.573 328.722 254.463C328.722 251.354 309.954 248.833 286.802 248.833C263.65 248.833 244.881 251.354 244.881 254.463C244.881 257.573 263.65 260.094 286.802 260.094Z" fill="white"/>
<path d="M57.1327 260.094C78.4968 260.094 95.8158 257.573 95.8158 254.463C95.8158 251.354 78.4968 248.833 57.1327 248.833C35.7686 248.833 18.4496 251.354 18.4496 254.463C18.4496 257.573 35.7686 260.094 57.1327 260.094Z" fill="#006EE9"/>
<path opacity="0.7" d="M57.1327 260.094C78.4968 260.094 95.8158 257.573 95.8158 254.463C95.8158 251.354 78.4968 248.833 57.1327 248.833C35.7686 248.833 18.4496 251.354 18.4496 254.463C18.4496 257.573 35.7686 260.094 57.1327 260.094Z" fill="white"/>
<path d="M274.97 56.116C274.97 56.116 290.895 54.5733 291.806 57.2275C292.717 59.8817 292.414 65.9432 292.414 65.9432C293.216 66.1517 293.998 66.4302 294.752 66.7753C294.965 66.9818 297.321 68.5245 295.123 71.0572C294.548 71.6994 293.853 72.2217 293.076 72.5938C292.106 73.023 291.184 73.5523 290.324 74.173L287.13 77.7989L287.737 82.4696C287.737 82.4696 289.164 83.5021 290.907 87.1038C290.907 87.1038 295.025 89.5332 297.443 90.912C299.431 91.9564 301.498 92.8419 303.626 93.5601C303.626 93.5601 304.731 93.9184 304.652 94.7141C304.573 95.5097 299.149 113.542 299.149 113.542L296.295 122.653C296.241 123.772 296.094 124.886 295.857 125.981C295.451 127.943 293.92 129.231 292.335 128.83L292.493 135.511C292.493 135.511 285.046 139.234 272.765 138.602C272.765 138.602 266.983 138.044 262.707 134.879L262.629 119.27L242.926 115.456C242.926 115.456 240.429 114.927 241.711 112.68C242.992 110.433 247.299 104.857 247.299 104.857L261.14 87.9237C261.14 87.9237 262.094 86.8001 262.446 86.4417C262.799 86.0834 263.661 85.8344 267.081 85.5489C270.5 85.2635 274.332 84.6014 274.332 84.6014C274.332 84.6014 276.41 82.8158 276.707 82.8158C277.005 82.8158 277.066 80.1434 277.066 80.1434C276.015 79.3854 275.142 78.4086 274.505 77.2803C273.869 76.1521 273.484 74.8992 273.379 73.6081C273.081 69.2715 274.982 59.1103 274.982 59.1103L274.97 56.116Z" fill="white"/>
<path d="M262.951 134.818C262.951 134.818 261.274 159.72 261.274 171.637C261.274 183.553 262.021 193.204 262.392 201.574C262.762 209.943 261.274 215.707 262.574 221.842C263.874 227.976 266.856 245.833 266.856 245.833L270.36 247.946C270.36 247.946 270.968 233.74 272.243 228.723C273.519 223.706 273.92 202.503 274.673 195.992C275.426 189.481 277.837 166.426 277.837 166.426C277.837 166.426 287.136 190.599 289.377 200.086C291.618 209.573 299.235 230.952 300.917 236.157C302.599 241.362 305.193 249.076 305.193 249.076C305.981 249.306 306.809 249.368 307.622 249.258C307.974 249.23 308.312 249.113 308.605 248.917C308.899 248.721 309.137 248.454 309.299 248.141C309.299 248.141 306.827 232.568 305.739 225C304.397 215.641 302.211 201.574 300.88 196.369C299.55 191.164 297.534 182.976 297.534 179.071C297.534 175.166 292.517 135.948 292.517 135.948C292.517 135.948 275.037 143.558 262.951 134.818Z" fill="#263238"/>
<path d="M277.825 166.426L270.366 157.729" stroke="white" stroke-width="0.530341" stroke-miterlimit="10" stroke-linecap="round"/>
<path d="M268.459 158.366L274.6 164.081" stroke="white" stroke-width="0.530341" stroke-miterlimit="10" stroke-linecap="round"/>
<path d="M281.584 159.004C283.157 155.026 286.079 151.727 289.839 149.687" stroke="white" stroke-width="0.530341" stroke-miterlimit="10" stroke-linecap="round"/>
<path d="M290.258 138.05C290.258 138.05 289.413 141.22 290.47 143.127C291.527 145.035 292.59 145.035 292.59 145.035C292.59 145.035 294.491 155.402 294.491 161.33C294.491 167.258 293.222 167.89 294.491 174.449C295.76 181.009 296.611 183.129 296.611 186.937C296.611 190.745 298.299 193.29 299.781 195.616C301.263 197.942 301.688 204.726 301.688 207.466C301.688 210.205 302.533 213.181 303.383 215.932C303.383 215.932 303.583 222.103 304.652 223.549C305.721 224.994 305.922 229.902 305.922 229.902" stroke="white" stroke-width="0.530341" stroke-miterlimit="10" stroke-linecap="round"/>
<path d="M276.294 165.564C276.294 165.564 276.713 170.422 275.231 178.895C273.75 187.368 272.693 189.688 272.48 199.424C272.268 209.16 273.118 210.855 272.693 215.932C272.268 221.01 269.729 229.033 269.729 232.677C269.729 236.322 270.117 247.971 270.117 247.971" stroke="white" stroke-width="0.530341" stroke-miterlimit="10" stroke-linecap="round"/>
<path d="M271.636 139.319L272.061 141.014L274.812 141.645L274.387 139.532" stroke="white" stroke-width="0.530341" stroke-miterlimit="10" stroke-linecap="round"/>
<path d="M274.824 141.645C274.824 141.645 279.902 141.433 282.441 140.589L281.833 138.894" stroke="white" stroke-width="0.530341" stroke-miterlimit="10" stroke-linecap="round"/>
<path d="M284.123 138.469L284.731 140.588C284.731 140.588 288.794 140.358 289.401 139.75" stroke="white" stroke-width="0.530341" stroke-miterlimit="10" stroke-linecap="round"/>
<path d="M272.061 141.014C270.657 140.97 269.282 140.606 268.04 139.951L266.133 138.894L266.74 137.412" stroke="white" stroke-width="0.530341" stroke-miterlimit="10" stroke-linecap="round"/>
<path d="M266.856 245.833C266.856 245.833 257.745 251.779 256.44 254.567C255.134 257.355 260.345 256.243 264.062 254.755C267.779 253.267 270.136 247.946 270.136 247.946L266.856 245.833Z" fill="white" stroke="#263238" stroke-width="1.06068" stroke-miterlimit="10" stroke-linecap="round"/>
<path d="M305.484 249.155C305.944 251.702 306.848 254.149 308.157 256.383C310.161 259.498 313.945 262.171 313.945 257.269C313.945 252.368 309.274 248.159 309.274 248.159C309.274 248.159 306.954 249.416 305.484 249.155Z" fill="white" stroke="#263238" stroke-width="1.06068" stroke-miterlimit="10" stroke-linecap="round"/>
<path d="M274.916 59.4809C274.916 59.4809 272.942 71.7253 273.61 74.7622C275.134 81.5586 280.485 81.267 283.832 79.9673C286.96 78.7526 290.081 74.4585 290.482 73.8936C290.511 73.8538 290.551 73.824 290.598 73.8086C291.096 73.6689 294.187 72.685 295.548 70.298C297.036 67.6924 294.248 66.581 294.248 66.581" fill="white"/>
<g style="mix-blend-mode:multiply" opacity="0.5">
<path d="M287.579 77.0461L290.531 73.8028C290.531 73.8028 294.023 72.7277 295.548 70.2679C296.441 68.8284 295.949 67.5712 295.408 67.2311C294.667 66.8301 293.903 66.4751 293.118 66.1682L292.128 68.3486L291.284 68.4944C291.284 68.4944 291.636 66.2471 290.616 64.917C289.596 63.5869 289.365 59.7362 289.365 59.7362C289.365 59.7362 287.937 67.4133 287.761 70.6262C287.716 72.4143 287.157 74.1516 286.152 75.6309C286.152 75.6309 286.334 77.5927 286.686 79.5545C286.729 79.7853 286.771 80.1315 286.814 80.5627L287.3 79.7853L287.567 80.5263C287.263 79.2508 287.124 77.8964 287.579 77.0461Z" fill="#006EE9"/>
</g>
<path d="M274.916 59.4809C274.916 59.4809 272.942 71.7253 273.61 74.7622C275.134 81.5586 280.485 81.267 283.832 79.9673C286.96 78.7526 290.081 74.4585 290.482 73.8936C290.511 73.8538 290.551 73.824 290.598 73.8086C291.096 73.6689 294.187 72.685 295.548 70.298C297.036 67.6924 294.248 66.581 294.248 66.581" stroke="#263238" stroke-width="1.06068" stroke-miterlimit="10" stroke-linecap="round"/>
<path d="M282.471 65.7063C282.356 66.1922 282.471 66.6295 282.696 66.6842C282.921 66.7389 283.224 66.3987 283.34 65.9189C283.455 65.4391 283.34 65.0018 283.115 64.9411C282.89 64.8803 282.587 65.2265 282.471 65.7063Z" fill="#263238"/>
<path d="M277.254 64.4372C277.139 64.9231 277.254 65.3604 277.479 65.4151C277.703 65.4698 278.007 65.1296 278.123 64.6498C278.238 64.17 278.123 63.7266 277.898 63.672C277.673 63.6173 277.363 63.9513 277.254 64.4372Z" fill="#263238"/>
<path d="M285.709 63.5805C285.422 63.0755 285.013 62.6503 284.52 62.3438C284.026 62.0372 283.464 61.8589 282.884 61.8252" stroke="#263238" stroke-width="1.06068" stroke-miterlimit="10" stroke-linecap="round"/>
<path d="M278.888 61.9163C278.41 61.7073 277.879 61.6489 277.367 61.7487C276.855 61.8485 276.386 62.1019 276.021 62.4751" stroke="#263238" stroke-width="1.06068" stroke-miterlimit="10" stroke-linecap="round"/>
<path d="M279.24 64.1273C279.252 64.9409 279.19 65.7539 279.058 66.5567C278.857 67.571 278.068 67.7715 278.268 68.555C278.469 69.3385 279.483 69.4174 279.483 69.4174" stroke="#263238" stroke-width="1.06068" stroke-miterlimit="10" stroke-linecap="round"/>
<path d="M280.54 72.5817C280.97 72.7186 281.424 72.7607 281.872 72.7052C282.32 72.6496 282.75 72.4976 283.133 72.2598" stroke="#263238" stroke-width="1.06068" stroke-miterlimit="10" stroke-linecap="round"/>
<path d="M290.16 50.9292C290.16 50.9292 286.073 47.3943 282.168 47.3943C278.262 47.3943 275.098 49.6294 272.681 49.8238C270.263 50.0181 268.593 47.7769 267.105 50.753C265.617 53.7291 271.199 58.752 274.916 59.493C278.633 60.234 283.838 59.1225 285.326 58.9342C286.751 58.8365 288.182 58.8365 289.608 58.9342C289.608 58.9342 288.49 62.4691 289.608 63.5867C290.725 64.7042 290.908 65.4452 290.908 66.1862C290.971 67.004 291.095 67.816 291.278 68.6156L292.396 68.9922L292.954 66.9454C294.462 65.3376 295.493 63.3418 295.93 61.1815C296.483 57.8349 293.695 54.5005 293.695 54.5005L290.16 50.9292Z" fill="#263238"/>
<path d="M274.503 57.9684C274.503 57.9684 280.862 59.1831 285.842 57.112C290.822 55.0409 286.528 50.929 286.528 50.929" stroke="white" stroke-width="0.530341" stroke-miterlimit="10" stroke-linecap="round"/>
<path d="M287.579 50.5831C288.095 50.5831 292.39 53.8446 291.527 56.2498C290.665 58.655 288.952 58.8311 288.952 58.8311" stroke="white" stroke-width="0.530341" stroke-miterlimit="10" stroke-linecap="round"/>
<path d="M286.875 124.36L281.506 121.529C280.126 121.453 278.753 121.274 277.4 120.995C276.149 120.637 263.309 119.41 263.309 119.41L263.115 122.446C263.115 122.446 277.758 124.414 280.789 124.773C283.82 125.131 286.504 126.558 287.039 127.451C287.573 128.344 288.648 129.237 288.114 131.703C287.579 134.169 284.008 137.776 284.008 137.776C283.838 137.521 292.596 136.89 292.511 135.954C292.323 134.096 291.333 128.666 291.333 128.666L286.875 124.36Z" fill="#006EE9"/>
<path opacity="0.5" d="M286.875 124.36L281.506 121.529C280.126 121.453 278.753 121.274 277.4 120.995C276.149 120.637 263.309 119.41 263.309 119.41L263.115 122.446C263.115 122.446 277.758 124.414 280.789 124.773C283.82 125.131 286.504 126.558 287.039 127.451C287.573 128.344 288.648 129.237 288.114 131.703C287.579 134.169 284.008 137.776 284.008 137.776C283.868 137.503 292.614 136.884 292.511 135.954C292.226 133.586 291.333 128.666 291.333 128.666L286.875 124.36Z" fill="white"/>
<path d="M304.585 94.6474C304.112 92.4245 300.577 92.7221 298.445 91.4891C296.313 90.2562 291.157 87.4015 291.157 87.4015L288.66 83.648C288.21 82.6361 287.846 81.5876 287.573 80.514L287.306 79.773L286.82 80.5505C287.13 83.8788 287.427 92.4002 287.427 92.4002L288.496 97.7571C288.496 97.7571 292.608 115.431 293.677 119.361C294.746 123.291 294.746 125.963 294.035 127.214C293.325 128.466 293.562 129.036 293.562 129.036C293.562 129.036 296.349 126.88 296.179 124.742C295.955 122.228 304.919 96.1537 304.585 94.6474Z" fill="#006EE9"/>
<path opacity="0.5" d="M304.585 94.6474C304.342 92.388 300.577 92.7221 298.445 91.4891C296.313 90.2562 291.157 87.4015 291.157 87.4015L288.66 83.648C288.21 82.6361 287.846 81.5876 287.573 80.514L287.306 79.773L286.82 80.5505C287.13 83.8788 287.427 92.4002 287.427 92.4002L288.496 97.7571C288.496 97.7571 292.608 115.431 293.677 119.361C294.746 123.291 294.746 125.963 294.035 127.214C293.325 128.466 293.562 129.036 293.562 129.036C293.562 129.036 296.428 126.874 296.179 124.742C295.894 122.453 304.804 96.5242 304.585 94.6474Z" fill="white"/>
<path d="M288.982 92.4184C288.982 92.4184 287.865 82.3786 287.306 79.7731C286.747 77.1675 287.124 75.6855 284.706 75.6855C282.289 75.6855 279.313 75.3089 279.847 76.6148C280.382 77.9206 284.099 76.797 284.706 77.3557C285.314 77.9145 284.889 79.2143 284.889 79.2143C284.889 79.2143 280.03 79.5908 280.03 80.8906C280.03 82.1904 280.218 85.7495 281.147 86.0957C282.076 86.4419 282.447 84.4255 282.447 84.4255C282.447 84.4255 282.635 88.677 283.564 90.1894C284.156 91.1234 284.842 91.9944 285.611 92.7889L288.982 92.4184Z" fill="white" stroke="#263238" stroke-width="1.06068" stroke-miterlimit="10" stroke-linecap="round"/>
<path d="M285.636 95.2062C285.636 95.2062 285.077 118.286 286.006 121.985C286.935 125.684 291.958 130.725 294.558 128.308C297.157 125.89 295.864 120.685 295.864 118.268C295.864 115.851 289.911 98.0001 289.911 96.6942C289.823 95.6098 289.571 94.545 289.164 93.5359" stroke="#263238" stroke-width="1.06068" stroke-miterlimit="10" stroke-linecap="round"/>
<path d="M286.006 98.0002L289.723 97.6236" stroke="#263238" stroke-width="1.06068" stroke-miterlimit="10" stroke-linecap="round"/>
<path d="M262.234 109.54L262.951 89.005C262.951 89.005 262.058 88.4705 261.699 90.4323C261.341 92.3941 261.165 96.3298 261.165 96.3298C261.165 96.3298 256.877 93.6513 257.952 95.2548C259.027 96.8582 260.807 100.436 260.807 100.436L254.174 107.038L257.211 108.289L262.234 109.54Z" fill="#006EE9"/>
<path opacity="0.5" d="M262.234 109.54L262.951 89.005C262.951 89.005 262.058 88.4705 261.699 90.4323C261.341 92.3941 261.165 96.3298 261.165 96.3298C261.165 96.3298 256.877 93.6513 257.952 95.2548C259.027 96.8582 260.807 100.436 260.807 100.436L254.174 107.038L257.211 108.289L262.234 109.54Z" fill="white"/>
<path d="M271.126 93.5905C271.126 93.5905 270.786 94.8052 272.213 94.8052C273.64 94.8052 276.149 93.7909 276.149 93.7909L275.966 91.7745C275.966 91.7745 272.535 93.4447 271.126 93.5905Z" fill="#006EE9"/>
<path opacity="0.5" d="M271.126 93.5905C271.126 93.5905 270.786 94.8052 272.213 94.8052C273.64 94.8052 276.149 93.7909 276.149 93.7909L275.966 91.7745C275.966 91.7745 272.535 93.4447 271.126 93.5905Z" fill="white"/>
<path d="M277.254 80.0098C277.254 80.0098 275.395 90.9423 276.513 93.3718C277.631 95.8013 279.301 95.2303 280.601 94.1189C281.9 93.0074 283.577 90.2135 283.577 90.2135" stroke="#263238" stroke-width="1.06068" stroke-miterlimit="10" stroke-linecap="round"/>
<path d="M262.574 119.568L262.951 134.818C262.951 134.818 267.202 138.906 275.408 138.906C283.613 138.906 292.517 135.93 292.517 135.93V130.537" stroke="#263238" stroke-width="1.06068" stroke-miterlimit="10" stroke-linecap="round"/>
<path d="M287.682 82.1903C287.682 82.1903 291.029 85.5369 291.029 88.7012C291.029 91.8656 290.47 92.6066 290.47 92.6066" stroke="#263238" stroke-width="1.06068" stroke-miterlimit="10" stroke-linecap="round"/>
<path d="M290.652 86.8426C290.652 86.8426 295.675 89.8126 298.463 91.489C301.251 93.1653 304.604 93.1592 304.604 94.6473C304.604 96.1353 296.793 121.426 296.793 121.426" stroke="#263238" stroke-width="1.06068" stroke-miterlimit="10" stroke-linecap="round"/>
<path d="M293.817 95.2061L291.958 102.646" stroke="#263238" stroke-width="1.06068" stroke-miterlimit="10" stroke-linecap="round"/>
<path d="M262.623 99.5729L259.616 93.2684" stroke="#263238" stroke-width="0.530341" stroke-miterlimit="10" stroke-linecap="round"/>
<path d="M262.623 101.377L258.116 98.6742" stroke="#263238" stroke-width="0.530341" stroke-miterlimit="10" stroke-linecap="round"/>
<path d="M277.327 115.48L276.428 119.987" stroke="#263238" stroke-width="0.530341" stroke-miterlimit="10" stroke-linecap="round"/>
<path d="M301.64 94.4713C301.64 94.4713 297.139 95.3702 292.936 100.472" stroke="#263238" stroke-width="0.530341" stroke-miterlimit="10" stroke-linecap="round"/>
<path d="M298.639 94.1978C298.639 94.1978 297.425 93.8941 293.24 97.4958" stroke="#263238" stroke-width="0.530341" stroke-miterlimit="10" stroke-linecap="round"/>
<path d="M277.327 95.6737L275.529 109.777L277.029 110.08L278.232 105.58" stroke="#263238" stroke-width="0.530341" stroke-miterlimit="10" stroke-linecap="round"/>
<path d="M278.529 132.589C273.124 137.096 265.623 136.792 265.623 136.792" stroke="#263238" stroke-width="0.530341" stroke-miterlimit="10" stroke-linecap="round"/>
<path d="M255.686 108.095C255.686 108.095 252.012 104.73 246.807 109.012" stroke="#263238" stroke-width="0.530341" stroke-miterlimit="10" stroke-linecap="round"/>
<path d="M276.896 82.7489C276.896 82.7489 275.408 83.1194 273.731 85.725C272.055 88.3306 270.014 92.7886 271.502 93.1591C272.99 93.5296 275.754 91.8594 275.754 91.8594" stroke="#263238" stroke-width="1.06068" stroke-miterlimit="10" stroke-linecap="round"/>
<path d="M282.66 92.6068L284.518 94.277" stroke="#263238" stroke-width="1.06068" stroke-miterlimit="10" stroke-linecap="round"/>
<path d="M274.29 84.6074C274.29 84.6074 267.409 85.5367 264.621 85.725C261.833 85.9133 262.374 86.9397 261.462 87.5835C259.993 88.61 243.132 109.983 242.027 112.03C240.921 114.077 241.097 115.006 242.956 115.565C244.815 116.124 263.327 119.379 263.327 119.379L279.683 121.055L280.983 116.962C280.983 116.962 284.785 117.466 285.453 117.466" stroke="#263238" stroke-width="1.06068" stroke-miterlimit="10" stroke-linecap="round"/>
<path d="M279.125 115.456C275.515 114.408 272.025 112.983 268.714 111.204" stroke="#263238" stroke-width="1.06068" stroke-miterlimit="10" stroke-linecap="round"/>
<path d="M267.226 110.828C267.226 110.828 261.76 108.799 258.802 108.429C255.844 108.058 251.313 107.937 251.313 107.937" stroke="#263238" stroke-width="1.06068" stroke-miterlimit="10" stroke-linecap="round"/>
<path d="M262.203 108.41L262.762 93.7181" stroke="#263238" stroke-width="1.06068" stroke-miterlimit="10" stroke-linecap="round"/>
<path d="M279.683 121.056C280.959 121.697 282.296 122.21 283.674 122.586" stroke="#263238" stroke-width="1.06068" stroke-miterlimit="10" stroke-linecap="round"/>
<path d="M36.3304 109.218L38.523 97.2345L52.4013 91.7682C52.4013 91.7682 53.0755 88.0451 53.7557 87.8811C54.436 87.7171 55.1041 86.1865 55.1041 86.1865L54.77 83.1193C54.77 83.1193 56.0394 78.2604 62.4228 82.0443C62.4228 82.0443 60.4914 83.3319 60.8255 83.8664C61.1595 84.4009 60.455 86.1015 61.2992 86.1015C62.1435 86.1015 63.8501 87.1765 64.7126 88.0451C65.3162 88.6936 65.8496 89.4041 66.3039 90.1648L73.489 90.5778C74.2255 90.5839 74.9583 90.6839 75.6695 90.8754C75.791 87.3648 75.3597 84.6863 74.5094 82.6031C71.4179 75.0839 65.7816 72.3993 64.9738 68.6337C64.166 64.868 64.5729 64.4732 64.5729 64.4732C65.3943 63.6381 65.9957 62.6122 66.3232 61.4876C66.6507 60.363 66.6942 59.1746 66.4497 58.0291C65.6479 54.0022 62.5565 51.178 51.4113 50.6435C40.2662 50.109 41.8817 57.7557 41.8817 57.7557L42.0154 58.2902C42.0154 58.2902 34.897 60.7197 36.2454 69.7026C37.5937 78.6856 41.4809 82.5909 41.3473 85.4091C41.2136 88.2273 37.0471 89.3023 31.1374 95.7343C25.2278 102.166 24.0252 111.842 26.4425 118.152C27.6572 121.256 30.032 123.843 33.0142 125.775L36.3304 109.218Z" fill="#263238"/>
<path d="M45.6352 110.402V113.111L40.4908 129.006C43.7054 129.857 47.0766 129.927 50.3241 129.213C52.1572 128.735 53.9093 127.988 55.5231 126.996L45.6352 110.402Z" fill="#263238"/>
<path d="M60.4246 83.7691L61.032 86.5022C61.032 86.5022 62.8541 84.6802 66.4132 90.2133C66.4132 90.2133 73.8109 90.0371 75.8274 91.0453C75.8274 91.0453 76.2465 91.1668 77.613 92.6184C78.9796 94.07 84.1179 98.6921 84.1179 98.6921C84.1179 98.6921 90.7139 104.814 91.3699 105.288C92.0258 105.762 94.4856 108.112 96.326 108.932L101.258 97.7021L103.456 92.1447L104.671 87.5712H105.06L105.145 83.8845L104.847 79.4872C104.896 79.2636 104.998 79.0551 105.145 78.8798C105.654 78.174 106.046 77.3905 106.305 76.5597C106.305 76.1467 105.886 73.7051 105.886 73.7051C105.886 73.7051 105.679 73.0977 106.129 73.0248C106.578 72.9519 108.236 73.5289 108.443 74.689L109.05 74.4825C109.553 73.2807 110.18 72.1347 110.921 71.063C111.905 69.7876 112.913 68.9858 113.539 69.3988C113.71 69.5172 113.834 69.6931 113.888 69.8947C113.941 70.0962 113.921 70.3103 113.83 70.4982L111.875 74.0938C111.875 74.0938 111.012 75.2538 112.081 75.6669C112.081 75.6669 114.395 77.1549 114.547 78.4607C114.699 79.7666 113.861 80.8902 113.12 81.8498C112.379 82.8095 111.073 84.8867 111.073 84.8867L109.554 86.2289L108.947 88.543L109.664 89.4358L108.595 94.07L107.823 97.5441L107.435 99.6517L105.005 107.973L102.576 115.225C102.576 115.225 101.325 119.379 98.2938 119.264C95.2631 119.148 91.9408 117.508 90.8657 116.974C89.7907 116.439 80.9292 111.811 80.9292 111.811L79.1072 110.949C79.3503 111.778 79.455 112.642 79.4169 113.506C79.3865 115.109 77.6616 118.644 77.1575 119.446L76.8599 125.714C76.7423 126.801 76.7627 127.899 76.9206 128.981C77.1879 130.615 78.5545 139.859 78.8521 141.013C78.8521 141.013 75.9003 143.686 67.1056 144.955C58.311 146.224 54.193 144.165 54.193 144.165L50.2755 141.864L55.1041 132.322C55.1041 132.322 56.3188 129.485 56.1973 128.738C56.0759 127.991 53.9987 124.772 53.9987 124.772L46.3762 111.204L46.0179 111.325L44.8335 115.285L40.5516 128.714L34.9153 145.477C34.9153 145.477 33.3726 149.729 32.7348 150.986L30.9552 156.41C31.0541 157.379 31.2935 158.328 31.6659 159.228L27.1896 156.331L27.9852 152.079L28.9752 145.739L30.19 138.845L31.2589 133.142L32.9656 125.538L33.573 123.436L34.7877 117.496L36.9256 106.721L38.7477 97.4956L51.5024 92.4241L52.2981 91.8167C52.475 90.6425 52.9061 89.5211 53.5614 88.5308C54.0162 87.8793 54.5577 87.2929 55.1709 86.7877C55.1709 86.7877 55.1102 85.9921 55.0676 85.2389C55.0251 84.4858 54.8308 83.101 54.8308 83.101C54.8308 83.101 58.7726 84.7956 60.4246 83.7691Z" fill="white"/>
<path d="M43.3394 59.3591C43.3394 59.3591 45.7021 54.1297 50.4274 54.1297C55.1527 54.1297 64.9373 63.4102 64.9373 63.4102" stroke="white" stroke-width="0.530341" stroke-miterlimit="10" stroke-linecap="round"/>
<path d="M45.3619 60.1854C45.3619 60.1854 48.2287 57.1486 51.7757 58.3268C55.3227 59.5051 55.8268 63.7263 55.8268 63.7263" stroke="white" stroke-width="0.530341" stroke-miterlimit="10" stroke-linecap="round"/>
<path d="M42.9992 60.7076C42.9992 60.7076 38.7841 63.0703 38.444 67.4615C38.1039 71.8528 44.3476 77.0761 45.1918 82.9858C46.0361 88.8954 41.6509 90.2377 34.5629 95.1331C27.475 100.028 28.6594 110.991 30.1778 113.354" stroke="white" stroke-width="0.530341" stroke-miterlimit="10" stroke-linecap="round"/>
<path d="M31.022 114.709C31.022 114.709 32.0303 116.901 33.5487 117.575" stroke="white" stroke-width="0.530341" stroke-miterlimit="10" stroke-linecap="round"/>
<path d="M43.5094 72.1808C43.3098 72.6094 43.2203 73.081 43.2489 73.5529C43.2776 74.0249 43.4235 74.4822 43.6734 74.8835C44.5177 76.4019 50.9618 83.994 50.4273 87.541C49.8929 91.088 46.5463 93.2745 46.5463 93.2745" stroke="white" stroke-width="0.530341" stroke-miterlimit="10" stroke-linecap="round"/>
<path d="M46.7103 60.7076C46.7103 60.7076 42.8292 62.3961 42.9993 66.2772C43.1693 70.1582 44.0136 71.1725 44.0136 71.1725" stroke="white" stroke-width="0.530341" stroke-miterlimit="10" stroke-linecap="round"/>
<path d="M64.9373 73.5475C66.1432 76.2775 67.7979 78.7862 69.8327 80.9695C72.8695 84.0063 73.2036 88.3975 73.2036 88.3975" stroke="white" stroke-width="0.530341" stroke-miterlimit="10" stroke-linecap="round"/>
<path d="M68.4782 83.1497C68.4782 83.1497 69.9966 86.6967 69.9966 88.8893" stroke="white" stroke-width="0.530341" stroke-miterlimit="10" stroke-linecap="round"/>
<path d="M60.0784 84.0911L55.3105 88.3851C55.3105 88.3851 54.8004 89.6849 53.8407 91.7682C52.8811 93.8514 53.039 97.8418 53.039 97.8418L55.9786 103.691C55.9786 103.691 50.3241 97.2041 50.0022 96.4024C49.6803 95.6007 43.7645 97.0462 42.647 97.526C41.5294 98.0058 40.0839 98.9655 40.4058 100.405C40.7277 101.844 42.1672 103.758 41.5234 104.079C40.8795 104.401 39.1243 103.6 39.1243 104.559C39.1243 105.519 41.2075 109.2 40.2479 110.475C39.2882 111.75 33.2085 132.389 33.2085 132.389C33.2085 132.389 37.0471 129.188 36.0874 130.469C35.1278 131.751 30.4936 142.143 30.4936 142.143L28.7322 148.217L32.8927 126.631L36.4093 108.41L38.523 97.2345C40.5637 96.5542 52.4013 91.7682 52.4013 91.7682C52.4013 91.7682 53.3366 87.8324 55.104 86.1865L54.77 83.1193C54.77 83.1193 57.9951 84.249 60.0784 84.0911Z" fill="#006EE9"/>
<path opacity="0.5" d="M60.0784 84.0911L55.3105 88.3851C55.3105 88.3851 54.8004 89.6849 53.8407 91.7682C52.8811 93.8514 53.039 97.8418 53.039 97.8418L55.9786 103.691C55.9786 103.691 50.3241 97.2041 50.0022 96.4024C49.6803 95.6007 43.7645 97.0462 42.647 97.526C41.5294 98.0058 40.0839 98.9655 40.4058 100.405C40.7277 101.844 42.1672 103.758 41.5234 104.079C40.8795 104.401 39.1243 103.6 39.1243 104.559C39.1243 105.519 41.2075 109.2 40.2479 110.475C39.2882 111.75 33.2085 132.389 33.2085 132.389C33.2085 132.389 37.0471 129.188 36.0874 130.469C35.1278 131.751 30.4936 142.143 30.4936 142.143L28.7322 148.217L32.8927 126.631L36.4093 108.41L38.523 97.2345C40.5637 96.5542 52.4013 91.7682 52.4013 91.7682C52.4013 91.7682 52.6564 88.124 55.1101 86.8485L54.77 83.1193C54.77 83.1193 57.9951 84.249 60.0784 84.0911Z" fill="white"/>
<path d="M77.8256 105.677C77.8256 105.677 80.7045 100.885 81.0264 102.003C81.3483 103.12 80.2247 106.953 80.2247 106.953C80.2247 106.953 83.2615 105.835 82.9457 106.795C82.6298 107.754 81.986 108.234 82.1439 108.714C82.3018 109.194 92.6999 114.63 93.9815 115.267C95.263 115.905 98.2998 112.231 99.7393 113.348C101.179 114.466 99.7393 118.298 96.8604 118.304C93.9815 118.31 85.6666 114.66 85.6666 114.66L79.1193 110.852" fill="#006EE9"/>
<path opacity="0.5" d="M77.8256 105.677C77.8256 105.677 80.7045 100.885 81.0264 102.003C81.3483 103.12 80.2247 106.953 80.2247 106.953C80.2247 106.953 83.2615 105.835 82.9457 106.795C82.6298 107.754 81.986 108.234 82.1439 108.714C82.3018 109.194 92.6999 114.63 93.9815 115.267C95.263 115.905 98.2998 112.231 99.7393 113.348C101.179 114.466 99.7393 118.298 96.8604 118.304C93.9815 118.31 85.6666 114.66 85.6666 114.66L79.1436 110.864" fill="white"/>
<path d="M60.5582 125.028C60.5582 125.028 79.2529 115.115 76.216 118.79C73.1792 122.464 63.1152 126.631 60.5582 125.028Z" fill="#006EE9"/>
<path opacity="0.5" d="M60.5582 125.028C60.5582 125.028 79.2529 115.115 76.216 118.79C73.1792 122.464 63.1152 126.631 60.5582 125.028Z" fill="white"/>
<path d="M54.77 83.1497C54.77 83.1497 54.9036 85.7006 55.3106 88.3851C55.7175 91.0697 55.5778 91.0697 58.1287 94.2887C60.6797 97.5078 63.3642 100.198 63.7651 99.6639" stroke="#263238" stroke-width="1.06068" stroke-miterlimit="10" stroke-linecap="round"/>
<path d="M63.8987 98.7227C63.8987 98.7227 64.166 94.0217 63.2306 90.9362C62.2953 87.8508 60.9469 86.7697 60.9469 86.0773C60.9015 85.3559 60.8123 84.6379 60.6797 83.9272" stroke="#263238" stroke-width="1.06068" stroke-miterlimit="10" stroke-linecap="round"/>
<path d="M54.77 87.0431C53.6972 88.0091 52.9467 89.2811 52.62 90.6873C52.2191 92.8313 51.8182 95.3822 51.8182 95.3822L55.9787 103.709C56.3409 102.259 56.8816 100.86 57.5882 99.5426C57.9382 98.8927 58.3915 98.3039 58.9305 97.7995" stroke="#263238" stroke-width="1.06068" stroke-miterlimit="10" stroke-linecap="round"/>
<path d="M64.8401 96.439C65.1338 96.3655 65.4393 96.3512 65.7386 96.3971C66.0379 96.443 66.325 96.5481 66.5832 96.7063C67.6583 97.2468 69.8084 100.065 69.8084 100.065C69.8084 100.065 68.3325 93.0803 65.7815 89.4604C63.2306 85.8405 61.4814 86.1017 61.4814 86.1017" stroke="#263238" stroke-width="1.06068" stroke-miterlimit="10" stroke-linecap="round"/>
<path d="M51.4113 92.2787L38.523 97.2348C38.523 97.2348 33.8281 122.878 32.0788 129.723C30.3296 136.568 27.3839 155.906 27.3839 155.906L30.8702 156.574L32.0849 153.088" stroke="#263238" stroke-linecap="round" stroke-linejoin="round"/>
<path d="M32.7531 151.084C32.7531 151.084 33.5548 149.869 35.7048 143.188C37.8549 136.507 43.6006 120.108 44.5663 116.871C45.532 113.633 46.3094 111.502 46.3094 111.502" stroke="#263238" stroke-width="1.06068" stroke-miterlimit="10" stroke-linecap="round"/>
<path d="M44.0257 107.56C44.0257 107.56 54.8975 126.996 55.8389 127.834C56.7804 128.672 55.4381 130.919 55.1648 132.128" stroke="#263238" stroke-width="1.06068" stroke-miterlimit="10" stroke-linecap="round"/>
<path d="M53.9622 134.569L50.476 141.821C50.476 141.821 52.7596 145.314 62.4228 145.314C68.1735 145.331 73.8418 143.947 78.9371 141.281C78.9371 141.281 76.6534 129.2 76.787 127.05C76.9206 124.9 77.194 119.264 77.194 119.264C77.194 119.264 79.6234 115.619 79.338 112.819C79.0525 110.02 77.8621 106.776 77.8621 106.242C77.8621 105.707 77.5948 99.9312 77.5948 99.9312" stroke="#263238" stroke-width="1.06068" stroke-miterlimit="10" stroke-linecap="round"/>
<path d="M62.4045 122.635L72.0252 116.731" stroke="#263238" stroke-width="0.530341" stroke-miterlimit="10" stroke-linecap="round"/>
<path d="M67.47 120.782L72.6994 117.745" stroke="#263238" stroke-width="0.530341" stroke-miterlimit="10" stroke-linecap="round"/>
<path d="M96.2592 109.06L94.2974 113.864" stroke="#263238" stroke-width="0.530341" stroke-miterlimit="10" stroke-linecap="round"/>
<path d="M95.4756 111.161L93.6232 113.02" stroke="#263238" stroke-width="0.530341" stroke-miterlimit="10" stroke-linecap="round"/>
<path d="M40.6366 128.21C40.6366 128.21 37.4297 131.921 35.2371 133.439" stroke="#263238" stroke-width="0.530341" stroke-miterlimit="10" stroke-linecap="round"/>
<path d="M38.7842 129.218C38.7842 129.218 33.2146 133.603 31.8663 134.618" stroke="#263238" stroke-width="0.530341" stroke-miterlimit="10" stroke-linecap="round"/>
<path d="M39.7742 98C41.4531 100.374 42.9748 102.855 44.3294 105.428" stroke="#263238" stroke-width="0.530341" stroke-miterlimit="10" stroke-linecap="round"/>
<path d="M44.8578 106.606L46.0361 108.629" stroke="#263238" stroke-width="0.530341" stroke-miterlimit="10" stroke-linecap="round"/>
<path d="M77.8621 106.242L79.338 98.7225" stroke="#263238" stroke-width="0.530341" stroke-miterlimit="10" stroke-linecap="round"/>
<path d="M78.4026 106.777L80.6802 103.557" stroke="#263238" stroke-width="0.530341" stroke-miterlimit="10" stroke-linecap="round"/>
<path d="M46.3094 111.477L39.8653 107.985" stroke="#263238" stroke-width="0.530341" stroke-miterlimit="10" stroke-linecap="round"/>
<path d="M63.6315 100.332C63.6315 100.332 66.0609 105.191 66.8566 108.659" stroke="#263238" stroke-width="0.530341" stroke-miterlimit="10" stroke-linecap="round"/>
<path d="M103.505 91.8717C104.148 91.8243 104.793 91.9075 105.403 92.1162C106.012 92.325 106.573 92.655 107.052 93.0864" stroke="#263238" stroke-width="0.530341" stroke-miterlimit="10" stroke-linecap="round"/>
<path d="M29.7162 152.572L31.3804 153.191" stroke="#263238" stroke-width="0.530341" stroke-miterlimit="10" stroke-linecap="round"/>
<path d="M27.3414 156.149C27.3623 158.458 27.2406 160.767 26.977 163.061C26.5761 165.885 26.7097 172.329 27.2442 174.34C27.7787 176.35 28.052 176.769 28.5865 175.554C29.121 174.34 30.7366 167.233 30.7366 167.233C30.7366 167.233 31.0038 171.928 32.2125 171.528C33.4211 171.127 32.753 168.843 32.753 166.826C32.753 164.81 32.8866 164.142 32.753 162.532C32.6194 160.923 30.8277 156.945 30.8277 156.945" fill="white"/>
<path d="M27.3414 156.149C27.3623 158.458 27.2406 160.767 26.977 163.061C26.5761 165.885 26.7097 172.329 27.2442 174.34C27.7787 176.35 28.052 176.769 28.5865 175.554C29.121 174.34 30.7366 167.233 30.7366 167.233C30.7366 167.233 31.0038 171.928 32.2125 171.528C33.4211 171.127 32.753 168.843 32.753 166.826C32.753 164.81 32.8866 164.142 32.753 162.532C32.6194 160.923 30.8277 156.945 30.8277 156.945" stroke="#263238" stroke-miterlimit="10" stroke-linecap="round"/>
<path d="M105.072 87.4681C105.011 86.2804 105.011 85.0905 105.072 83.9028C105.181 82.7853 104.738 81.115 104.847 79.6513C104.957 78.1875 106.408 77.647 106.183 75.752C105.959 73.857 105.515 73.6323 105.849 73.1889C106.183 72.7455 108.279 73.4076 108.412 74.6344C108.532 75.897 108.532 77.1679 108.412 78.4305C108.303 78.7645 109.081 80.8599 108.637 81.771C108.383 82.2645 108.195 82.7893 108.078 83.3319" stroke="#263238" stroke-width="0.880843" stroke-miterlimit="10" stroke-linecap="round"/>
<path d="M108.862 74.5374C108.862 74.5374 111.425 69.4113 112.877 69.2959C114.328 69.1805 113.879 70.5106 113.429 71.1909C112.98 71.8711 111.534 74.3127 111.425 75.3209C111.316 76.3292 109.973 79.6636 109.973 79.6636" stroke="#263238" stroke-width="0.880843" stroke-miterlimit="10" stroke-linecap="round"/>
<path d="M111.443 75.3209C111.443 75.3209 115.349 77.6592 114.48 79.5724C113.612 81.4856 113.138 82.2509 112.47 82.0019C111.877 81.6992 111.348 81.287 110.909 80.7871" stroke="#263238" stroke-width="0.880843" stroke-miterlimit="10" stroke-linecap="round"/>
<path d="M112.877 82.0081C112.877 82.0081 111.868 83.6784 111.091 84.6866C110.644 85.2689 110.114 85.7825 109.518 86.2111L109.044 87.8571" stroke="#263238" stroke-width="0.880843" stroke-miterlimit="10" stroke-linecap="round"/>
<path d="M66.0488 90.1285C66.0488 90.1285 75.3111 89.9949 76.5197 91.4708C77.7284 92.9467 92.3659 106.376 94.1333 107.584C95.9008 108.793 96.2834 109.06 96.2834 109.06C96.2834 109.06 103.529 92.6612 103.529 91.8717C103.529 91.0821 104.744 87.444 104.744 87.444C104.744 87.444 107.028 87.7112 107.568 87.7112C108.109 87.7112 109.579 89.4604 109.579 89.4604C109.579 89.4604 107.568 97.6477 107.568 98.5709C107.568 99.4941 103.809 112.267 102.059 116.184C100.31 120.102 97.899 119.537 94.0058 118.328C90.1126 117.12 79.508 111.083 79.508 111.083" stroke="#263238" stroke-width="1.06068" stroke-miterlimit="10" stroke-linecap="round"/>
<path d="M50.4759 141.821C50.4759 141.821 45.1008 155.268 43.6492 164.421C42.1976 173.574 42.8171 194.978 42.398 197.268C41.9789 199.557 36.1603 210.362 36.1603 215.561C36.1603 220.761 33.0446 247.576 33.0446 247.576L35.1217 248.821C35.1217 248.821 42.4101 226.348 45.1008 220.548C47.7914 214.748 51.5449 201.009 52.5835 198.306C53.6221 195.603 60.9044 173.981 61.3174 171.278C61.7304 168.576 64.2267 161.925 64.2267 161.925C64.2267 161.925 69.6322 194.978 70.6708 201.841C71.7094 208.704 78.9857 245.912 78.9857 245.912C79.4635 246.028 79.9518 246.098 80.4433 246.118C81.0507 246.118 81.2754 245.079 81.2754 245.079C81.2754 245.079 84.1847 218.677 83.3526 211.608C82.5205 204.538 80.0303 195.816 80.0303 193.314C80.0303 190.811 83.7717 169.201 83.7717 161.731C83.7717 154.26 78.9128 141.293 78.9128 141.293C78.9128 141.293 61.6697 149.99 50.4759 141.821Z" fill="#263238"/>
<path d="M79.9513 194.686C79.9513 194.686 78.0989 202.619 75.5662 206.834" stroke="white" stroke-width="0.530341" stroke-miterlimit="10" stroke-linecap="round"/>
<path d="M79.4473 202.788C79.4473 202.788 77.9289 208.522 74.892 211.225" stroke="white" stroke-width="0.530341" stroke-miterlimit="10" stroke-linecap="round"/>
<path d="M43.5095 200.256C43.5095 200.256 44.6878 207.174 46.0361 210.041" stroke="white" stroke-width="0.530341" stroke-miterlimit="10" stroke-linecap="round"/>
<path d="M43.1693 204.307C43.1693 204.307 44.1836 209.202 46.0361 212.069" stroke="white" stroke-width="0.530341" stroke-miterlimit="10" stroke-linecap="round"/>
<path d="M64.7672 161.955L71.515 156.386" stroke="white" stroke-width="0.530341" stroke-miterlimit="10" stroke-linecap="round"/>
<path d="M67.9741 159.593L75.9063 156.046" stroke="white" stroke-width="0.530341" stroke-miterlimit="10" stroke-linecap="round"/>
<path d="M50.5913 150.142C50.5913 150.142 55.8268 153.513 58.8636 156.386" stroke="white" stroke-width="0.530341" stroke-miterlimit="10" stroke-linecap="round"/>
<path d="M33.2632 247.557C33.2632 247.557 25.3674 254.238 25.3674 257.555C25.3674 260.871 28.4832 260.67 31.8116 257.555C35.1399 254.439 35.31 248.019 35.31 248.019L33.2632 247.557Z" fill="white" stroke="#263238" stroke-width="1.06068" stroke-miterlimit="10" stroke-linecap="round"/>
<path d="M78.9857 245.911C78.9857 245.911 81.6884 252.562 84.6038 255.477C87.5191 258.393 89.1772 259.425 89.1772 256.304C89.1772 253.182 87.3066 249.653 81.2815 245.079C81.2754 245.079 82.9396 246.325 78.9857 245.911Z" fill="white" stroke="#263238" stroke-width="1.06068" stroke-miterlimit="10" stroke-linecap="round"/>
<path d="M51.0955 61.8253C50.5549 61.6249 50.0447 61.3819 49.5163 61.1572C48.9879 60.9325 48.0222 60.811 47.6578 62.4691C47.1172 64.8986 50.8768 66.9029 49.6682 68.9133C48.9162 70.1363 47.7861 71.0809 46.4491 71.6039C46.2315 71.6787 46.0047 71.7237 45.775 71.7375C44.6999 71.8711 42.9568 71.7375 43.4913 73.6143C44.0257 75.491 45.7749 77.1066 46.85 77.1066H47.925C47.925 77.1066 49.1398 80.7508 53.695 82.743C58.2502 84.7351 61.3478 84.6258 62.4228 82.0749C63.4979 79.5239 64.3057 77.3739 64.3057 74.0151C64.3057 70.6564 63.0909 65.0201 63.0909 65.0201C63.0909 65.0201 62.0159 66.502 57.8554 64.6192C55.1041 63.3741 52.5289 62.3659 51.0955 61.8253Z" fill="white"/>
<g style="mix-blend-mode:multiply" opacity="0.5">
<path d="M57.8615 64.6192C57.8615 64.6192 51.4416 64.2608 50.482 64.4188C49.5224 64.5767 50.6399 67.4556 50.3241 70.3345C50.0082 73.2134 50.1601 77.8537 51.4416 79.2931C52.9539 80.7773 54.5563 82.1668 56.2398 83.4536C56.2398 83.4536 51.3141 82.6579 49.5224 80.5747C47.7306 78.4914 47.4452 77.3739 47.4452 77.3739C47.4452 77.3739 43.2847 74.9444 42.9628 73.0555C42.6409 71.1666 45.3923 72.1687 46.7102 71.2334C47.4512 70.7232 50.5184 69.7636 49.7471 67.2066C48.9757 64.6496 47.7306 64.1697 47.682 62.457C47.6456 61.2422 48.7146 60.89 49.3705 60.7806C49.6662 60.7309 49.9701 60.7755 50.239 60.9082L57.8615 64.6192Z" fill="#006EE9"/>
</g>
<path d="M51.0955 61.8253C50.5549 61.6249 50.0447 61.3819 49.5163 61.1572C48.9879 60.9325 48.0222 60.811 47.6578 62.4691C47.1172 64.8986 50.8768 66.9029 49.6682 68.9133C48.9162 70.1363 47.7861 71.0809 46.4491 71.6039C46.2315 71.6787 46.0047 71.7237 45.775 71.7375C44.6999 71.8711 42.9568 71.7375 43.4913 73.6143C44.0257 75.491 45.7749 77.1066 46.85 77.1066H47.925C47.925 77.1066 49.1398 80.7508 53.695 82.743C58.2502 84.7351 61.3478 84.6258 62.4228 82.0749C63.4979 79.5239 64.3057 77.3739 64.3057 74.0151C64.3057 70.6564 63.0909 65.0201 63.0909 65.0201C63.0909 65.0201 62.0159 66.502 57.8554 64.6192C55.1041 63.3741 52.5289 62.3659 51.0955 61.8253Z" stroke="#263238" stroke-width="1.06068" stroke-miterlimit="10" stroke-linecap="round"/>
<path d="M55.839 69.7817C55.924 70.2919 55.7843 70.7413 55.5231 70.7838C55.262 70.8263 54.9947 70.4437 54.9158 69.9335C54.8368 69.4233 54.9765 68.9678 55.2316 68.9253C55.4867 68.8828 55.7539 69.2958 55.839 69.7817Z" fill="#263238"/>
<path d="M61.3964 68.8522C61.4753 69.3624 61.3356 69.8119 61.0805 69.8544C60.8255 69.8969 60.5521 69.5143 60.4732 69.0041C60.3942 68.4939 60.5278 68.0444 60.7829 68.0019C61.038 67.9594 61.3113 68.342 61.3964 68.8522Z" fill="#263238"/>
<path d="M52.6199 67.3036C52.9598 66.7984 53.4208 66.3864 53.9608 66.1053C54.5008 65.8241 55.1027 65.6828 55.7114 65.6941" stroke="#263238" stroke-width="1.06068" stroke-miterlimit="10" stroke-linecap="round"/>
<path d="M59.8718 66.0952C60.3877 65.9149 60.9463 65.8956 61.4734 66.0398C62.0006 66.1841 62.4714 66.4851 62.8236 66.903" stroke="#263238" stroke-width="1.06068" stroke-miterlimit="10" stroke-linecap="round"/>
<path d="M59.3374 68.3788C59.2632 69.2274 59.2632 70.081 59.3374 70.9297C59.471 72.0047 60.2727 72.272 60.0055 73.0798C59.7382 73.8876 58.6632 73.8815 58.6632 73.8815" stroke="#263238" stroke-width="1.06068" stroke-miterlimit="10" stroke-linecap="round"/>
<path d="M57.3209 77.1066C56.8609 77.2153 56.3829 77.2232 55.9195 77.1299C55.4562 77.0366 55.0184 76.8443 54.6364 76.566" stroke="#263238" stroke-width="1.06068" stroke-miterlimit="10" stroke-linecap="round"/>
</svg>
